<?xml version="1.0" encoding="utf-8" standalone="no"?>
<!DOCTYPE svg PUBLIC "-//W3C//DTD SVG 1.1//EN"
  "http://www.w3.org/Graphics/SVG/1.1/DTD/svg11.dtd">
<svg xmlns:xlink="http://www.w3.org/1999/xlink" width="720pt" height="576pt" viewBox="0 0 720 576" xmlns="http://www.w3.org/2000/svg" version="1.1">
 <metadata>
  <rdf:RDF xmlns:dc="http://purl.org/dc/elements/1.1/" xmlns:cc="http://creativecommons.org/ns#" xmlns:rdf="http://www.w3.org/1999/02/22-rdf-syntax-ns#">
   <cc:Work>
    <dc:type rdf:resource="http://purl.org/dc/dcmitype/StillImage"/>
    <dc:date>2025-08-21T11:07:03.989586</dc:date>
    <dc:format>image/svg+xml</dc:format>
    <dc:creator>
     <cc:Agent>
      <dc:title>Matplotlib v3.10.1, https://matplotlib.org/</dc:title>
     </cc:Agent>
    </dc:creator>
   </cc:Work>
  </rdf:RDF>
 </metadata>
 <defs>
  <style type="text/css">*{stroke-linejoin: round; stroke-linecap: butt}</style>
 </defs>
 <g id="figure_1">
  <g id="patch_1">
   <path d="M 0 576 
L 720 576 
L 720 0 
L 0 0 
z
" style="fill: #ffffff"/>
  </g>
  <g id="axes_1">
   <g id="patch_2">
    <path d="M 90 512.64 
L 648 512.64 
L 648 69.12 
L 90 69.12 
z
" style="fill: #ffffff"/>
   </g>
   <g id="patch_3">
    <path d="M 90 512.64 
L 108.6 512.64 
L 108.6 69.12 
L 90 69.12 
z
" clip-path="url(#p024c4dc635)" style="fill: #008000; opacity: 0.2"/>
   </g>
   <g id="patch_4">
    <path d="M 91.324976 512.64 
L 101.924783 512.64 
L 101.924783 282.24 
L 91.324976 282.24 
z
" clip-path="url(#p024c4dc635)" style="fill: #808080"/>
   </g>
   <g id="patch_5">
    <path d="M 104.574735 512.64 
L 115.174542 512.64 
L 115.174542 295.04 
L 104.574735 295.04 
z
" clip-path="url(#p024c4dc635)" style="fill: #808080; opacity: 0.3"/>
   </g>
   <g id="patch_6">
    <path d="M 117.824494 512.64 
L 128.424301 512.64 
L 128.424301 359.04 
L 117.824494 359.04 
z
" clip-path="url(#p024c4dc635)" style="fill: #808080; opacity: 0.3"/>
   </g>
   <g id="patch_7">
    <path d="M 131.074253 512.64 
L 141.67406 512.64 
L 141.67406 115.84 
L 131.074253 115.84 
z
" clip-path="url(#p024c4dc635)" style="fill: #808080; opacity: 0.3"/>
   </g>
   <g id="patch_8">
    <path d="M 144.324012 512.64 
L 154.92382 512.64 
L 154.92382 154.24 
L 144.324012 154.24 
z
" clip-path="url(#p024c4dc635)" style="fill: #808080; opacity: 0.3"/>
   </g>
   <g id="patch_9">
    <path d="M 157.573771 512.64 
L 168.173579 512.64 
L 168.173579 90.24 
L 157.573771 90.24 
z
" clip-path="url(#p024c4dc635)" style="fill: #808080; opacity: 0.3"/>
   </g>
   <g id="patch_10">
    <path d="M 170.823531 512.64 
L 181.423338 512.64 
L 181.423338 205.44 
L 170.823531 205.44 
z
" clip-path="url(#p024c4dc635)" style="fill: #808080; opacity: 0.3"/>
   </g>
   <g id="patch_11">
    <path d="M 184.07329 512.64 
L 194.673097 512.64 
L 194.673097 269.44 
L 184.07329 269.44 
z
" clip-path="url(#p024c4dc635)" style="fill: #808080; opacity: 0.3"/>
   </g>
   <g id="patch_12">
    <path d="M 197.323049 512.64 
L 207.922856 512.64 
L 207.922856 359.04 
L 197.323049 359.04 
z
" clip-path="url(#p024c4dc635)" style="fill: #808080; opacity: 0.3"/>
   </g>
   <g id="patch_13">
    <path d="M 210.572808 512.64 
L 221.172615 512.64 
L 221.172615 371.84 
L 210.572808 371.84 
z
" clip-path="url(#p024c4dc635)" style="fill: #808080; opacity: 0.3"/>
   </g>
   <g id="patch_14">
    <path d="M 223.822567 512.64 
L 234.422374 512.64 
L 234.422374 333.44 
L 223.822567 333.44 
z
" clip-path="url(#p024c4dc635)" style="fill: #808080; opacity: 0.3"/>
   </g>
   <g id="patch_15">
    <path d="M 237.072326 512.64 
L 247.672133 512.64 
L 247.672133 371.84 
L 237.072326 371.84 
z
" clip-path="url(#p024c4dc635)" style="fill: #808080; opacity: 0.3"/>
   </g>
   <g id="patch_16">
    <path d="M 250.322085 512.64 
L 260.921892 512.64 
L 260.921892 359.04 
L 250.322085 359.04 
z
" clip-path="url(#p024c4dc635)" style="fill: #808080; opacity: 0.3"/>
   </g>
   <g id="patch_17">
    <path d="M 263.571844 512.64 
L 274.171651 512.64 
L 274.171651 435.84 
L 263.571844 435.84 
z
" clip-path="url(#p024c4dc635)" style="fill: #808080; opacity: 0.3"/>
   </g>
   <g id="patch_18">
    <path d="M 276.821603 512.64 
L 287.421411 512.64 
L 287.421411 423.04 
L 276.821603 423.04 
z
" clip-path="url(#p024c4dc635)" style="fill: #808080; opacity: 0.3"/>
   </g>
   <g id="patch_19">
    <path d="M 290.071362 512.64 
L 300.67117 512.64 
L 300.67117 474.24 
L 290.071362 474.24 
z
" clip-path="url(#p024c4dc635)" style="fill: #808080; opacity: 0.3"/>
   </g>
   <g id="patch_20">
    <path d="M 303.321122 512.64 
L 313.920929 512.64 
L 313.920929 423.04 
L 303.321122 423.04 
z
" clip-path="url(#p024c4dc635)" style="fill: #808080; opacity: 0.3"/>
   </g>
   <g id="patch_21">
    <path d="M 316.570881 512.64 
L 327.170688 512.64 
L 327.170688 435.84 
L 316.570881 435.84 
z
" clip-path="url(#p024c4dc635)" style="fill: #808080; opacity: 0.3"/>
   </g>
   <g id="patch_22">
    <path d="M 329.82064 512.64 
L 340.420447 512.64 
L 340.420447 474.24 
L 329.82064 474.24 
z
" clip-path="url(#p024c4dc635)" style="fill: #808080; opacity: 0.3"/>
   </g>
   <g id="patch_23">
    <path d="M 343.070399 512.64 
L 353.670206 512.64 
L 353.670206 499.84 
L 343.070399 499.84 
z
" clip-path="url(#p024c4dc635)" style="fill: #808080; opacity: 0.3"/>
   </g>
   <g id="patch_24">
    <path d="M 356.320158 512.64 
L 366.919965 512.64 
L 366.919965 461.44 
L 356.320158 461.44 
z
" clip-path="url(#p024c4dc635)" style="fill: #808080; opacity: 0.3"/>
   </g>
   <g id="patch_25">
    <path d="M 369.569917 512.64 
L 380.169724 512.64 
L 380.169724 474.24 
L 369.569917 474.24 
z
" clip-path="url(#p024c4dc635)" style="fill: #808080; opacity: 0.3"/>
   </g>
   <g id="patch_26">
    <path d="M 382.819676 512.64 
L 393.419483 512.64 
L 393.419483 499.84 
L 382.819676 499.84 
z
" clip-path="url(#p024c4dc635)" style="fill: #808080; opacity: 0.3"/>
   </g>
   <g id="patch_27">
    <path d="M 396.069435 512.64 
L 406.669242 512.64 
L 406.669242 474.24 
L 396.069435 474.24 
z
" clip-path="url(#p024c4dc635)" style="fill: #808080; opacity: 0.3"/>
   </g>
   <g id="patch_28">
    <path d="M 409.319194 512.64 
L 419.919002 512.64 
L 419.919002 499.84 
L 409.319194 499.84 
z
" clip-path="url(#p024c4dc635)" style="fill: #808080; opacity: 0.3"/>
   </g>
   <g id="patch_29">
    <path d="M 422.568953 512.64 
L 433.168761 512.64 
L 433.168761 499.84 
L 422.568953 499.84 
z
" clip-path="url(#p024c4dc635)" style="fill: #808080; opacity: 0.3"/>
   </g>
   <g id="patch_30">
    <path d="M 435.818713 512.64 
L 446.41852 512.64 
L 446.41852 499.84 
L 435.818713 499.84 
z
" clip-path="url(#p024c4dc635)" style="fill: #808080; opacity: 0.3"/>
   </g>
   <g id="patch_31">
    <path d="M 449.068472 512.64 
L 459.668279 512.64 
L 459.668279 512.64 
L 449.068472 512.64 
z
" clip-path="url(#p024c4dc635)" style="fill: #808080; opacity: 0.3"/>
   </g>
   <g id="patch_32">
    <path d="M 462.318231 512.64 
L 472.918038 512.64 
L 472.918038 512.64 
L 462.318231 512.64 
z
" clip-path="url(#p024c4dc635)" style="fill: #808080; opacity: 0.3"/>
   </g>
   <g id="patch_33">
    <path d="M 475.56799 512.64 
L 486.167797 512.64 
L 486.167797 512.64 
L 475.56799 512.64 
z
" clip-path="url(#p024c4dc635)" style="fill: #808080; opacity: 0.3"/>
   </g>
   <g id="patch_34">
    <path d="M 488.817749 512.64 
L 499.417556 512.64 
L 499.417556 512.64 
L 488.817749 512.64 
z
" clip-path="url(#p024c4dc635)" style="fill: #808080; opacity: 0.3"/>
   </g>
   <g id="patch_35">
    <path d="M 502.067508 512.64 
L 512.667315 512.64 
L 512.667315 499.84 
L 502.067508 499.84 
z
" clip-path="url(#p024c4dc635)" style="fill: #808080; opacity: 0.3"/>
   </g>
   <g id="patch_36">
    <path d="M 515.317267 512.64 
L 525.917074 512.64 
L 525.917074 512.64 
L 515.317267 512.64 
z
" clip-path="url(#p024c4dc635)" style="fill: #808080; opacity: 0.3"/>
   </g>
   <g id="patch_37">
    <path d="M 528.567026 512.64 
L 539.166833 512.64 
L 539.166833 487.04 
L 528.567026 487.04 
z
" clip-path="url(#p024c4dc635)" style="fill: #808080; opacity: 0.3"/>
   </g>
   <g id="patch_38">
    <path d="M 541.816785 512.64 
L 552.416593 512.64 
L 552.416593 499.84 
L 541.816785 499.84 
z
" clip-path="url(#p024c4dc635)" style="fill: #808080; opacity: 0.3"/>
   </g>
   <g id="patch_39">
    <path d="M 555.066544 512.64 
L 565.666352 512.64 
L 565.666352 512.64 
L 555.066544 512.64 
z
" clip-path="url(#p024c4dc635)" style="fill: #808080; opacity: 0.3"/>
   </g>
   <g id="patch_40">
    <path d="M 568.316304 512.64 
L 578.916111 512.64 
L 578.916111 499.84 
L 568.316304 499.84 
z
" clip-path="url(#p024c4dc635)" style="fill: #808080; opacity: 0.3"/>
   </g>
   <g id="patch_41">
    <path d="M 581.566063 512.64 
L 592.16587 512.64 
L 592.16587 512.64 
L 581.566063 512.64 
z
" clip-path="url(#p024c4dc635)" style="fill: #808080; opacity: 0.3"/>
   </g>
   <g id="patch_42">
    <path d="M 594.815822 512.64 
L 605.415629 512.64 
L 605.415629 512.64 
L 594.815822 512.64 
z
" clip-path="url(#p024c4dc635)" style="fill: #808080; opacity: 0.3"/>
   </g>
   <g id="patch_43">
    <path d="M 608.065581 512.64 
L 618.665388 512.64 
L 618.665388 512.64 
L 608.065581 512.64 
z
" clip-path="url(#p024c4dc635)" style="fill: #808080; opacity: 0.3"/>
   </g>
   <g id="patch_44">
    <path d="M 621.31534 512.64 
L 631.915147 512.64 
L 631.915147 512.64 
L 621.31534 512.64 
z
" clip-path="url(#p024c4dc635)" style="fill: #808080; opacity: 0.3"/>
   </g>
   <g id="patch_45">
    <path d="M 634.565099 512.64 
L 645.164906 512.64 
L 645.164906 499.84 
L 634.565099 499.84 
z
" clip-path="url(#p024c4dc635)" style="fill: #808080; opacity: 0.3"/>
   </g>
   <g id="patch_46">
    <path d="M 647.814858 512.64 
L 658.414665 512.64 
L 658.414665 512.64 
L 647.814858 512.64 
z
" clip-path="url(#p024c4dc635)" style="fill: #808080; opacity: 0.3"/>
   </g>
   <g id="patch_47">
    <path d="M 661.064617 512.64 
L 671.664424 512.64 
L 671.664424 512.64 
L 661.064617 512.64 
z
" clip-path="url(#p024c4dc635)" style="fill: #808080; opacity: 0.3"/>
   </g>
   <g id="patch_48">
    <path d="M 674.314376 512.64 
L 684.914184 512.64 
L 684.914184 499.84 
L 674.314376 499.84 
z
" clip-path="url(#p024c4dc635)" style="fill: #808080; opacity: 0.3"/>
   </g>
   <g id="patch_49">
    <path d="M 687.564135 512.64 
L 698.163943 512.64 
L 698.163943 512.64 
L 687.564135 512.64 
z
" clip-path="url(#p024c4dc635)" style="fill: #808080; opacity: 0.3"/>
   </g>
   <g id="patch_50">
    <path d="M 700.813895 512.64 
L 711.413702 512.64 
L 711.413702 512.64 
L 700.813895 512.64 
z
" clip-path="url(#p024c4dc635)" style="fill: #808080; opacity: 0.3"/>
   </g>
   <g id="patch_51">
    <path d="M 714.063654 512.64 
L 724.663461 512.64 
L 724.663461 512.64 
L 714.063654 512.64 
z
" clip-path="url(#p024c4dc635)" style="fill: #808080; opacity: 0.3"/>
   </g>
   <g id="patch_52">
    <path d="M 727.313413 512.64 
L 737.91322 512.64 
L 737.91322 512.64 
L 727.313413 512.64 
z
" clip-path="url(#p024c4dc635)" style="fill: #808080; opacity: 0.3"/>
   </g>
   <g id="patch_53">
    <path d="M 740.563172 512.64 
L 751.162979 512.64 
L 751.162979 512.64 
L 740.563172 512.64 
z
" clip-path="url(#p024c4dc635)" style="fill: #808080; opacity: 0.3"/>
   </g>
   <g id="patch_54">
    <path d="M 753.812931 512.64 
L 764.412738 512.64 
L 764.412738 512.64 
L 753.812931 512.64 
z
" clip-path="url(#p024c4dc635)" style="fill: #808080; opacity: 0.3"/>
   </g>
   <g id="patch_55">
    <path d="M 767.06269 512.64 
L 777.662497 512.64 
L 777.662497 512.64 
L 767.06269 512.64 
z
" clip-path="url(#p024c4dc635)" style="fill: #808080; opacity: 0.3"/>
   </g>
   <g id="patch_56">
    <path d="M 780.312449 512.64 
L 790.912256 512.64 
L 790.912256 512.64 
L 780.312449 512.64 
z
" clip-path="url(#p024c4dc635)" style="fill: #808080; opacity: 0.3"/>
   </g>
   <g id="patch_57">
    <path d="M 793.562208 512.64 
L 804.162015 512.64 
L 804.162015 512.64 
L 793.562208 512.64 
z
" clip-path="url(#p024c4dc635)" style="fill: #808080; opacity: 0.3"/>
   </g>
   <g id="patch_58">
    <path d="M 806.811967 512.64 
L 817.411775 512.64 
L 817.411775 512.64 
L 806.811967 512.64 
z
" clip-path="url(#p024c4dc635)" style="fill: #808080; opacity: 0.3"/>
   </g>
   <g id="patch_59">
    <path d="M 820.061726 512.64 
L 830.661534 512.64 
L 830.661534 512.64 
L 820.061726 512.64 
z
" clip-path="url(#p024c4dc635)" style="fill: #808080; opacity: 0.3"/>
   </g>
   <g id="patch_60">
    <path d="M 833.311486 512.64 
L 843.911293 512.64 
L 843.911293 512.64 
L 833.311486 512.64 
z
" clip-path="url(#p024c4dc635)" style="fill: #808080; opacity: 0.3"/>
   </g>
   <g id="patch_61">
    <path d="M 846.561245 512.64 
L 857.161052 512.64 
L 857.161052 512.64 
L 846.561245 512.64 
z
" clip-path="url(#p024c4dc635)" style="fill: #808080; opacity: 0.3"/>
   </g>
   <g id="patch_62">
    <path d="M 859.811004 512.64 
L 870.410811 512.64 
L 870.410811 512.64 
L 859.811004 512.64 
z
" clip-path="url(#p024c4dc635)" style="fill: #808080; opacity: 0.3"/>
   </g>
   <g id="patch_63">
    <path d="M 873.060763 512.64 
L 883.66057 512.64 
L 883.66057 512.64 
L 873.060763 512.64 
z
" clip-path="url(#p024c4dc635)" style="fill: #808080; opacity: 0.3"/>
   </g>
   <g id="patch_64">
    <path d="M 886.310522 512.64 
L 896.910329 512.64 
L 896.910329 512.64 
L 886.310522 512.64 
z
" clip-path="url(#p024c4dc635)" style="fill: #808080; opacity: 0.3"/>
   </g>
   <g id="patch_65">
    <path d="M 899.560281 512.64 
L 910.160088 512.64 
L 910.160088 512.64 
L 899.560281 512.64 
z
" clip-path="url(#p024c4dc635)" style="fill: #808080; opacity: 0.3"/>
   </g>
   <g id="patch_66">
    <path d="M 912.81004 512.64 
L 923.409847 512.64 
L 923.409847 512.64 
L 912.81004 512.64 
z
" clip-path="url(#p024c4dc635)" style="fill: #808080; opacity: 0.3"/>
   </g>
   <g id="patch_67">
    <path d="M 926.059799 512.64 
L 936.659606 512.64 
L 936.659606 512.64 
L 926.059799 512.64 
z
" clip-path="url(#p024c4dc635)" style="fill: #808080; opacity: 0.3"/>
   </g>
   <g id="patch_68">
    <path d="M 939.309558 512.64 
L 949.909366 512.64 
L 949.909366 512.64 
L 939.309558 512.64 
z
" clip-path="url(#p024c4dc635)" style="fill: #808080; opacity: 0.3"/>
   </g>
   <g id="patch_69">
    <path d="M 952.559317 512.64 
L 963.159125 512.64 
L 963.159125 512.64 
L 952.559317 512.64 
z
" clip-path="url(#p024c4dc635)" style="fill: #808080; opacity: 0.3"/>
   </g>
   <g id="patch_70">
    <path d="M 965.809077 512.64 
L 976.408884 512.64 
L 976.408884 512.64 
L 965.809077 512.64 
z
" clip-path="url(#p024c4dc635)" style="fill: #808080; opacity: 0.3"/>
   </g>
   <g id="patch_71">
    <path d="M 979.058836 512.64 
L 989.658643 512.64 
L 989.658643 512.64 
L 979.058836 512.64 
z
" clip-path="url(#p024c4dc635)" style="fill: #808080; opacity: 0.3"/>
   </g>
   <g id="patch_72">
    <path d="M 992.308595 512.64 
L 1002.908402 512.64 
L 1002.908402 512.64 
L 992.308595 512.64 
z
" clip-path="url(#p024c4dc635)" style="fill: #808080; opacity: 0.3"/>
   </g>
   <g id="patch_73">
    <path d="M 1005.558354 512.64 
L 1016.158161 512.64 
L 1016.158161 512.64 
L 1005.558354 512.64 
z
" clip-path="url(#p024c4dc635)" style="fill: #808080; opacity: 0.3"/>
   </g>
   <g id="patch_74">
    <path d="M 1018.808113 512.64 
L 1029.40792 512.64 
L 1029.40792 512.64 
L 1018.808113 512.64 
z
" clip-path="url(#p024c4dc635)" style="fill: #808080; opacity: 0.3"/>
   </g>
   <g id="patch_75">
    <path d="M 1032.057872 512.64 
L 1042.657679 512.64 
L 1042.657679 512.64 
L 1032.057872 512.64 
z
" clip-path="url(#p024c4dc635)" style="fill: #808080; opacity: 0.3"/>
   </g>
   <g id="patch_76">
    <path d="M 1045.307631 512.64 
L 1055.907438 512.64 
L 1055.907438 512.64 
L 1045.307631 512.64 
z
" clip-path="url(#p024c4dc635)" style="fill: #808080; opacity: 0.3"/>
   </g>
   <g id="patch_77">
    <path d="M 1058.55739 512.64 
L 1069.157197 512.64 
L 1069.157197 512.64 
L 1058.55739 512.64 
z
" clip-path="url(#p024c4dc635)" style="fill: #808080; opacity: 0.3"/>
   </g>
   <g id="patch_78">
    <path d="M 1071.807149 512.64 
L 1082.406957 512.64 
L 1082.406957 512.64 
L 1071.807149 512.64 
z
" clip-path="url(#p024c4dc635)" style="fill: #808080; opacity: 0.3"/>
   </g>
   <g id="patch_79">
    <path d="M 1085.056908 512.64 
L 1095.656716 512.64 
L 1095.656716 512.64 
L 1085.056908 512.64 
z
" clip-path="url(#p024c4dc635)" style="fill: #808080; opacity: 0.3"/>
   </g>
   <g id="patch_80">
    <path d="M 1098.306668 512.64 
L 1108.906475 512.64 
L 1108.906475 499.84 
L 1098.306668 499.84 
z
" clip-path="url(#p024c4dc635)" style="fill: #808080; opacity: 0.3"/>
   </g>
   <g id="patch_81">
    <path d="M 1111.556427 512.64 
L 1122.156234 512.64 
L 1122.156234 512.64 
L 1111.556427 512.64 
z
" clip-path="url(#p024c4dc635)" style="fill: #808080; opacity: 0.3"/>
   </g>
   <g id="patch_82">
    <path d="M 1124.806186 512.64 
L 1135.405993 512.64 
L 1135.405993 512.64 
L 1124.806186 512.64 
z
" clip-path="url(#p024c4dc635)" style="fill: #808080; opacity: 0.3"/>
   </g>
   <g id="patch_83">
    <path d="M 1138.055945 512.64 
L 1148.655752 512.64 
L 1148.655752 512.64 
L 1138.055945 512.64 
z
" clip-path="url(#p024c4dc635)" style="fill: #808080; opacity: 0.3"/>
   </g>
   <g id="patch_84">
    <path d="M 1151.305704 512.64 
L 1161.905511 512.64 
L 1161.905511 512.64 
L 1151.305704 512.64 
z
" clip-path="url(#p024c4dc635)" style="fill: #808080; opacity: 0.3"/>
   </g>
   <g id="patch_85">
    <path d="M 1164.555463 512.64 
L 1175.15527 512.64 
L 1175.15527 512.64 
L 1164.555463 512.64 
z
" clip-path="url(#p024c4dc635)" style="fill: #808080; opacity: 0.3"/>
   </g>
   <g id="patch_86">
    <path d="M 1177.805222 512.64 
L 1188.405029 512.64 
L 1188.405029 499.84 
L 1177.805222 499.84 
z
" clip-path="url(#p024c4dc635)" style="fill: #808080; opacity: 0.3"/>
   </g>
   <g id="patch_87">
    <path d="M 1191.054981 512.64 
L 1201.654788 512.64 
L 1201.654788 512.64 
L 1191.054981 512.64 
z
" clip-path="url(#p024c4dc635)" style="fill: #808080; opacity: 0.3"/>
   </g>
   <g id="patch_88">
    <path d="M 1204.30474 512.64 
L 1214.904548 512.64 
L 1214.904548 512.64 
L 1204.30474 512.64 
z
" clip-path="url(#p024c4dc635)" style="fill: #808080; opacity: 0.3"/>
   </g>
   <g id="patch_89">
    <path d="M 1217.554499 512.64 
L 1228.154307 512.64 
L 1228.154307 512.64 
L 1217.554499 512.64 
z
" clip-path="url(#p024c4dc635)" style="fill: #808080; opacity: 0.3"/>
   </g>
   <g id="patch_90">
    <path d="M 1230.804259 512.64 
L 1241.404066 512.64 
L 1241.404066 512.64 
L 1230.804259 512.64 
z
" clip-path="url(#p024c4dc635)" style="fill: #808080; opacity: 0.3"/>
   </g>
   <g id="patch_91">
    <path d="M 1244.054018 512.64 
L 1254.653825 512.64 
L 1254.653825 512.64 
L 1244.054018 512.64 
z
" clip-path="url(#p024c4dc635)" style="fill: #808080; opacity: 0.3"/>
   </g>
   <g id="patch_92">
    <path d="M 1257.303777 512.64 
L 1267.903584 512.64 
L 1267.903584 512.64 
L 1257.303777 512.64 
z
" clip-path="url(#p024c4dc635)" style="fill: #808080; opacity: 0.3"/>
   </g>
   <g id="patch_93">
    <path d="M 1270.553536 512.64 
L 1281.153343 512.64 
L 1281.153343 512.64 
L 1270.553536 512.64 
z
" clip-path="url(#p024c4dc635)" style="fill: #808080; opacity: 0.3"/>
   </g>
   <g id="patch_94">
    <path d="M 1283.803295 512.64 
L 1294.403102 512.64 
L 1294.403102 512.64 
L 1283.803295 512.64 
z
" clip-path="url(#p024c4dc635)" style="fill: #808080; opacity: 0.3"/>
   </g>
   <g id="patch_95">
    <path d="M 1297.053054 512.64 
L 1307.652861 512.64 
L 1307.652861 512.64 
L 1297.053054 512.64 
z
" clip-path="url(#p024c4dc635)" style="fill: #808080; opacity: 0.3"/>
   </g>
   <g id="patch_96">
    <path d="M 1310.302813 512.64 
L 1320.90262 512.64 
L 1320.90262 499.84 
L 1310.302813 499.84 
z
" clip-path="url(#p024c4dc635)" style="fill: #808080; opacity: 0.3"/>
   </g>
   <g id="patch_97">
    <path d="M 1323.552572 512.64 
L 1334.152379 512.64 
L 1334.152379 512.64 
L 1323.552572 512.64 
z
" clip-path="url(#p024c4dc635)" style="fill: #808080; opacity: 0.3"/>
   </g>
   <g id="patch_98">
    <path d="M 1336.802331 512.64 
L 1347.402139 512.64 
L 1347.402139 512.64 
L 1336.802331 512.64 
z
" clip-path="url(#p024c4dc635)" style="fill: #808080; opacity: 0.3"/>
   </g>
   <g id="patch_99">
    <path d="M 1350.05209 512.64 
L 1360.651898 512.64 
L 1360.651898 512.64 
L 1350.05209 512.64 
z
" clip-path="url(#p024c4dc635)" style="fill: #808080; opacity: 0.3"/>
   </g>
   <g id="patch_100">
    <path d="M 1363.30185 512.64 
L 1373.901657 512.64 
L 1373.901657 512.64 
L 1363.30185 512.64 
z
" clip-path="url(#p024c4dc635)" style="fill: #808080; opacity: 0.3"/>
   </g>
   <g id="patch_101">
    <path d="M 1376.551609 512.64 
L 1387.151416 512.64 
L 1387.151416 512.64 
L 1376.551609 512.64 
z
" clip-path="url(#p024c4dc635)" style="fill: #808080; opacity: 0.3"/>
   </g>
   <g id="patch_102">
    <path d="M 1389.801368 512.64 
L 1400.401175 512.64 
L 1400.401175 512.64 
L 1389.801368 512.64 
z
" clip-path="url(#p024c4dc635)" style="fill: #808080; opacity: 0.3"/>
   </g>
   <g id="patch_103">
    <path d="M 1403.051127 512.64 
L 1413.650934 512.64 
L 1413.650934 512.64 
L 1403.051127 512.64 
z
" clip-path="url(#p024c4dc635)" style="fill: #808080; opacity: 0.3"/>
   </g>
   <g id="patch_104">
    <path d="M 1416.300886 512.64 
L 1426.900693 512.64 
L 1426.900693 512.64 
L 1416.300886 512.64 
z
" clip-path="url(#p024c4dc635)" style="fill: #808080; opacity: 0.3"/>
   </g>
   <g id="patch_105">
    <path d="M 1429.550645 512.64 
L 1440.150452 512.64 
L 1440.150452 512.64 
L 1429.550645 512.64 
z
" clip-path="url(#p024c4dc635)" style="fill: #808080; opacity: 0.3"/>
   </g>
   <g id="patch_106">
    <path d="M 1442.800404 512.64 
L 1453.400211 512.64 
L 1453.400211 499.84 
L 1442.800404 499.84 
z
" clip-path="url(#p024c4dc635)" style="fill: #808080; opacity: 0.3"/>
   </g>
   <g id="patch_107">
    <path d="M 1456.050163 512.64 
L 1466.64997 512.64 
L 1466.64997 512.64 
L 1456.050163 512.64 
z
" clip-path="url(#p024c4dc635)" style="fill: #808080; opacity: 0.3"/>
   </g>
   <g id="patch_108">
    <path d="M 1469.299922 512.64 
L 1479.89973 512.64 
L 1479.89973 499.84 
L 1469.299922 499.84 
z
" clip-path="url(#p024c4dc635)" style="fill: #808080; opacity: 0.3"/>
   </g>
   <g id="patch_109">
    <path d="M 1482.549681 512.64 
L 1493.149489 512.64 
L 1493.149489 512.64 
L 1482.549681 512.64 
z
" clip-path="url(#p024c4dc635)" style="fill: #808080; opacity: 0.3"/>
   </g>
   <g id="patch_110">
    <path d="M 1495.799441 512.64 
L 1506.399248 512.64 
L 1506.399248 512.64 
L 1495.799441 512.64 
z
" clip-path="url(#p024c4dc635)" style="fill: #808080; opacity: 0.3"/>
   </g>
   <g id="patch_111">
    <path d="M 1509.0492 512.64 
L 1519.649007 512.64 
L 1519.649007 512.64 
L 1509.0492 512.64 
z
" clip-path="url(#p024c4dc635)" style="fill: #808080; opacity: 0.3"/>
   </g>
   <g id="patch_112">
    <path d="M 1522.298959 512.64 
L 1532.898766 512.64 
L 1532.898766 512.64 
L 1522.298959 512.64 
z
" clip-path="url(#p024c4dc635)" style="fill: #808080; opacity: 0.3"/>
   </g>
   <g id="patch_113">
    <path d="M 1535.548718 512.64 
L 1546.148525 512.64 
L 1546.148525 512.64 
L 1535.548718 512.64 
z
" clip-path="url(#p024c4dc635)" style="fill: #808080; opacity: 0.3"/>
   </g>
   <g id="patch_114">
    <path d="M 1548.798477 512.64 
L 1559.398284 512.64 
L 1559.398284 512.64 
L 1548.798477 512.64 
z
" clip-path="url(#p024c4dc635)" style="fill: #808080; opacity: 0.3"/>
   </g>
   <g id="patch_115">
    <path d="M 1562.048236 512.64 
L 1572.648043 512.64 
L 1572.648043 512.64 
L 1562.048236 512.64 
z
" clip-path="url(#p024c4dc635)" style="fill: #808080; opacity: 0.3"/>
   </g>
   <g id="patch_116">
    <path d="M 1575.297995 512.64 
L 1585.897802 512.64 
L 1585.897802 512.64 
L 1575.297995 512.64 
z
" clip-path="url(#p024c4dc635)" style="fill: #808080; opacity: 0.3"/>
   </g>
   <g id="patch_117">
    <path d="M 1588.547754 512.64 
L 1599.147561 512.64 
L 1599.147561 512.64 
L 1588.547754 512.64 
z
" clip-path="url(#p024c4dc635)" style="fill: #808080; opacity: 0.3"/>
   </g>
   <g id="patch_118">
    <path d="M 1601.797513 512.64 
L 1612.397321 512.64 
L 1612.397321 499.84 
L 1601.797513 499.84 
z
" clip-path="url(#p024c4dc635)" style="fill: #808080; opacity: 0.3"/>
   </g>
   <g id="patch_119">
    <path d="M 1615.047272 512.64 
L 1625.64708 512.64 
L 1625.64708 512.64 
L 1615.047272 512.64 
z
" clip-path="url(#p024c4dc635)" style="fill: #808080; opacity: 0.3"/>
   </g>
   <g id="patch_120">
    <path d="M 1628.297032 512.64 
L 1638.896839 512.64 
L 1638.896839 512.64 
L 1628.297032 512.64 
z
" clip-path="url(#p024c4dc635)" style="fill: #808080; opacity: 0.3"/>
   </g>
   <g id="patch_121">
    <path d="M 1641.546791 512.64 
L 1652.146598 512.64 
L 1652.146598 512.64 
L 1641.546791 512.64 
z
" clip-path="url(#p024c4dc635)" style="fill: #808080; opacity: 0.3"/>
   </g>
   <g id="patch_122">
    <path d="M 1654.79655 512.64 
L 1665.396357 512.64 
L 1665.396357 512.64 
L 1654.79655 512.64 
z
" clip-path="url(#p024c4dc635)" style="fill: #808080; opacity: 0.3"/>
   </g>
   <g id="patch_123">
    <path d="M 1668.046309 512.64 
L 1678.646116 512.64 
L 1678.646116 512.64 
L 1668.046309 512.64 
z
" clip-path="url(#p024c4dc635)" style="fill: #808080; opacity: 0.3"/>
   </g>
   <g id="patch_124">
    <path d="M 1681.296068 512.64 
L 1691.895875 512.64 
L 1691.895875 512.64 
L 1681.296068 512.64 
z
" clip-path="url(#p024c4dc635)" style="fill: #808080; opacity: 0.3"/>
   </g>
   <g id="patch_125">
    <path d="M 1694.545827 512.64 
L 1705.145634 512.64 
L 1705.145634 512.64 
L 1694.545827 512.64 
z
" clip-path="url(#p024c4dc635)" style="fill: #808080; opacity: 0.3"/>
   </g>
   <g id="patch_126">
    <path d="M 1707.795586 512.64 
L 1718.395393 512.64 
L 1718.395393 512.64 
L 1707.795586 512.64 
z
" clip-path="url(#p024c4dc635)" style="fill: #808080; opacity: 0.3"/>
   </g>
   <g id="patch_127">
    <path d="M 1721.045345 512.64 
L 1731.645152 512.64 
L 1731.645152 512.64 
L 1721.045345 512.64 
z
" clip-path="url(#p024c4dc635)" style="fill: #808080; opacity: 0.3"/>
   </g>
   <g id="patch_128">
    <path d="M 1734.295104 512.64 
L 1744.894912 512.64 
L 1744.894912 512.64 
L 1734.295104 512.64 
z
" clip-path="url(#p024c4dc635)" style="fill: #808080; opacity: 0.3"/>
   </g>
   <g id="patch_129">
    <path d="M 1747.544863 512.64 
L 1758.144671 512.64 
L 1758.144671 512.64 
L 1747.544863 512.64 
z
" clip-path="url(#p024c4dc635)" style="fill: #808080; opacity: 0.3"/>
   </g>
   <g id="patch_130">
    <path d="M 1760.794623 512.64 
L 1771.39443 512.64 
L 1771.39443 512.64 
L 1760.794623 512.64 
z
" clip-path="url(#p024c4dc635)" style="fill: #808080; opacity: 0.3"/>
   </g>
   <g id="patch_131">
    <path d="M 1774.044382 512.64 
L 1784.644189 512.64 
L 1784.644189 512.64 
L 1774.044382 512.64 
z
" clip-path="url(#p024c4dc635)" style="fill: #808080; opacity: 0.3"/>
   </g>
   <g id="patch_132">
    <path d="M 1787.294141 512.64 
L 1797.893948 512.64 
L 1797.893948 512.64 
L 1787.294141 512.64 
z
" clip-path="url(#p024c4dc635)" style="fill: #808080; opacity: 0.3"/>
   </g>
   <g id="patch_133">
    <path d="M 1800.5439 512.64 
L 1811.143707 512.64 
L 1811.143707 512.64 
L 1800.5439 512.64 
z
" clip-path="url(#p024c4dc635)" style="fill: #808080; opacity: 0.3"/>
   </g>
   <g id="patch_134">
    <path d="M 1813.793659 512.64 
L 1824.393466 512.64 
L 1824.393466 512.64 
L 1813.793659 512.64 
z
" clip-path="url(#p024c4dc635)" style="fill: #808080; opacity: 0.3"/>
   </g>
   <g id="patch_135">
    <path d="M 1827.043418 512.64 
L 1837.643225 512.64 
L 1837.643225 512.64 
L 1827.043418 512.64 
z
" clip-path="url(#p024c4dc635)" style="fill: #808080; opacity: 0.3"/>
   </g>
   <g id="patch_136">
    <path d="M 1840.293177 512.64 
L 1850.892984 512.64 
L 1850.892984 512.64 
L 1840.293177 512.64 
z
" clip-path="url(#p024c4dc635)" style="fill: #808080; opacity: 0.3"/>
   </g>
   <g id="patch_137">
    <path d="M 1853.542936 512.64 
L 1864.142743 512.64 
L 1864.142743 512.64 
L 1853.542936 512.64 
z
" clip-path="url(#p024c4dc635)" style="fill: #808080; opacity: 0.3"/>
   </g>
   <g id="patch_138">
    <path d="M 1866.792695 512.64 
L 1877.392503 512.64 
L 1877.392503 512.64 
L 1866.792695 512.64 
z
" clip-path="url(#p024c4dc635)" style="fill: #808080; opacity: 0.3"/>
   </g>
   <g id="patch_139">
    <path d="M 1880.042454 512.64 
L 1890.642262 512.64 
L 1890.642262 512.64 
L 1880.042454 512.64 
z
" clip-path="url(#p024c4dc635)" style="fill: #808080; opacity: 0.3"/>
   </g>
   <g id="patch_140">
    <path d="M 1893.292214 512.64 
L 1903.892021 512.64 
L 1903.892021 512.64 
L 1893.292214 512.64 
z
" clip-path="url(#p024c4dc635)" style="fill: #808080; opacity: 0.3"/>
   </g>
   <g id="patch_141">
    <path d="M 1906.541973 512.64 
L 1917.14178 512.64 
L 1917.14178 512.64 
L 1906.541973 512.64 
z
" clip-path="url(#p024c4dc635)" style="fill: #808080; opacity: 0.3"/>
   </g>
   <g id="patch_142">
    <path d="M 1919.791732 512.64 
L 1930.391539 512.64 
L 1930.391539 512.64 
L 1919.791732 512.64 
z
" clip-path="url(#p024c4dc635)" style="fill: #808080; opacity: 0.3"/>
   </g>
   <g id="patch_143">
    <path d="M 1933.041491 512.64 
L 1943.641298 512.64 
L 1943.641298 512.64 
L 1933.041491 512.64 
z
" clip-path="url(#p024c4dc635)" style="fill: #808080; opacity: 0.3"/>
   </g>
   <g id="patch_144">
    <path d="M 1946.29125 512.64 
L 1956.891057 512.64 
L 1956.891057 512.64 
L 1946.29125 512.64 
z
" clip-path="url(#p024c4dc635)" style="fill: #808080; opacity: 0.3"/>
   </g>
   <g id="patch_145">
    <path d="M 1959.541009 512.64 
L 1970.140816 512.64 
L 1970.140816 512.64 
L 1959.541009 512.64 
z
" clip-path="url(#p024c4dc635)" style="fill: #808080; opacity: 0.3"/>
   </g>
   <g id="patch_146">
    <path d="M 1972.790768 512.64 
L 1983.390575 512.64 
L 1983.390575 512.64 
L 1972.790768 512.64 
z
" clip-path="url(#p024c4dc635)" style="fill: #808080; opacity: 0.3"/>
   </g>
   <g id="patch_147">
    <path d="M 1986.040527 512.64 
L 1996.640334 512.64 
L 1996.640334 512.64 
L 1986.040527 512.64 
z
" clip-path="url(#p024c4dc635)" style="fill: #808080; opacity: 0.3"/>
   </g>
   <g id="patch_148">
    <path d="M 1999.290286 512.64 
L 2009.890094 512.64 
L 2009.890094 512.64 
L 1999.290286 512.64 
z
" clip-path="url(#p024c4dc635)" style="fill: #808080; opacity: 0.3"/>
   </g>
   <g id="patch_149">
    <path d="M 2012.540045 512.64 
L 2023.139853 512.64 
L 2023.139853 512.64 
L 2012.540045 512.64 
z
" clip-path="url(#p024c4dc635)" style="fill: #808080; opacity: 0.3"/>
   </g>
   <g id="patch_150">
    <path d="M 2025.789805 512.64 
L 2036.389612 512.64 
L 2036.389612 512.64 
L 2025.789805 512.64 
z
" clip-path="url(#p024c4dc635)" style="fill: #808080; opacity: 0.3"/>
   </g>
   <g id="patch_151">
    <path d="M 2039.039564 512.64 
L 2049.639371 512.64 
L 2049.639371 512.64 
L 2039.039564 512.64 
z
" clip-path="url(#p024c4dc635)" style="fill: #808080; opacity: 0.3"/>
   </g>
   <g id="patch_152">
    <path d="M 2052.289323 512.64 
L 2062.88913 512.64 
L 2062.88913 512.64 
L 2052.289323 512.64 
z
" clip-path="url(#p024c4dc635)" style="fill: #808080; opacity: 0.3"/>
   </g>
   <g id="patch_153">
    <path d="M 2065.539082 512.64 
L 2076.138889 512.64 
L 2076.138889 499.84 
L 2065.539082 499.84 
z
" clip-path="url(#p024c4dc635)" style="fill: #808080; opacity: 0.3"/>
   </g>
   <g id="patch_154">
    <path d="M 91.324976 512.64 
L 101.924783 512.64 
L 101.924783 410.24 
L 91.324976 410.24 
z
" clip-path="url(#p024c4dc635)" style="fill: #6495ed"/>
   </g>
   <g id="patch_155">
    <path d="M 104.574735 512.64 
L 115.174542 512.64 
L 115.174542 346.24 
L 104.574735 346.24 
z
" clip-path="url(#p024c4dc635)" style="fill: #6495ed; opacity: 0.3"/>
   </g>
   <g id="patch_156">
    <path d="M 117.824494 512.64 
L 128.424301 512.64 
L 128.424301 435.84 
L 117.824494 435.84 
z
" clip-path="url(#p024c4dc635)" style="fill: #6495ed; opacity: 0.3"/>
   </g>
   <g id="patch_157">
    <path d="M 131.074253 512.64 
L 141.67406 512.64 
L 141.67406 320.64 
L 131.074253 320.64 
z
" clip-path="url(#p024c4dc635)" style="fill: #6495ed; opacity: 0.3"/>
   </g>
   <g id="patch_158">
    <path d="M 144.324012 512.64 
L 154.92382 512.64 
L 154.92382 346.24 
L 144.324012 346.24 
z
" clip-path="url(#p024c4dc635)" style="fill: #6495ed; opacity: 0.3"/>
   </g>
   <g id="patch_159">
    <path d="M 157.573771 512.64 
L 168.173579 512.64 
L 168.173579 333.44 
L 157.573771 333.44 
z
" clip-path="url(#p024c4dc635)" style="fill: #6495ed; opacity: 0.3"/>
   </g>
   <g id="patch_160">
    <path d="M 170.823531 512.64 
L 181.423338 512.64 
L 181.423338 359.04 
L 170.823531 359.04 
z
" clip-path="url(#p024c4dc635)" style="fill: #6495ed; opacity: 0.3"/>
   </g>
   <g id="patch_161">
    <path d="M 184.07329 512.64 
L 194.673097 512.64 
L 194.673097 410.24 
L 184.07329 410.24 
z
" clip-path="url(#p024c4dc635)" style="fill: #6495ed; opacity: 0.3"/>
   </g>
   <g id="patch_162">
    <path d="M 197.323049 512.64 
L 207.922856 512.64 
L 207.922856 474.24 
L 197.323049 474.24 
z
" clip-path="url(#p024c4dc635)" style="fill: #6495ed; opacity: 0.3"/>
   </g>
   <g id="patch_163">
    <path d="M 210.572808 512.64 
L 221.172615 512.64 
L 221.172615 487.04 
L 210.572808 487.04 
z
" clip-path="url(#p024c4dc635)" style="fill: #6495ed; opacity: 0.3"/>
   </g>
   <g id="patch_164">
    <path d="M 223.822567 512.64 
L 234.422374 512.64 
L 234.422374 461.44 
L 223.822567 461.44 
z
" clip-path="url(#p024c4dc635)" style="fill: #6495ed; opacity: 0.3"/>
   </g>
   <g id="patch_165">
    <path d="M 237.072326 512.64 
L 247.672133 512.64 
L 247.672133 448.64 
L 237.072326 448.64 
z
" clip-path="url(#p024c4dc635)" style="fill: #6495ed; opacity: 0.3"/>
   </g>
   <g id="patch_166">
    <path d="M 250.322085 512.64 
L 260.921892 512.64 
L 260.921892 461.44 
L 250.322085 461.44 
z
" clip-path="url(#p024c4dc635)" style="fill: #6495ed; opacity: 0.3"/>
   </g>
   <g id="patch_167">
    <path d="M 263.571844 512.64 
L 274.171651 512.64 
L 274.171651 474.24 
L 263.571844 474.24 
z
" clip-path="url(#p024c4dc635)" style="fill: #6495ed; opacity: 0.3"/>
   </g>
   <g id="patch_168">
    <path d="M 276.821603 512.64 
L 287.421411 512.64 
L 287.421411 487.04 
L 276.821603 487.04 
z
" clip-path="url(#p024c4dc635)" style="fill: #6495ed; opacity: 0.3"/>
   </g>
   <g id="patch_169">
    <path d="M 290.071362 512.64 
L 300.67117 512.64 
L 300.67117 512.64 
L 290.071362 512.64 
z
" clip-path="url(#p024c4dc635)" style="fill: #6495ed; opacity: 0.3"/>
   </g>
   <g id="patch_170">
    <path d="M 303.321122 512.64 
L 313.920929 512.64 
L 313.920929 512.64 
L 303.321122 512.64 
z
" clip-path="url(#p024c4dc635)" style="fill: #6495ed; opacity: 0.3"/>
   </g>
   <g id="patch_171">
    <path d="M 316.570881 512.64 
L 327.170688 512.64 
L 327.170688 487.04 
L 316.570881 487.04 
z
" clip-path="url(#p024c4dc635)" style="fill: #6495ed; opacity: 0.3"/>
   </g>
   <g id="patch_172">
    <path d="M 329.82064 512.64 
L 340.420447 512.64 
L 340.420447 512.64 
L 329.82064 512.64 
z
" clip-path="url(#p024c4dc635)" style="fill: #6495ed; opacity: 0.3"/>
   </g>
   <g id="patch_173">
    <path d="M 343.070399 512.64 
L 353.670206 512.64 
L 353.670206 499.84 
L 343.070399 499.84 
z
" clip-path="url(#p024c4dc635)" style="fill: #6495ed; opacity: 0.3"/>
   </g>
   <g id="patch_174">
    <path d="M 356.320158 512.64 
L 366.919965 512.64 
L 366.919965 487.04 
L 356.320158 487.04 
z
" clip-path="url(#p024c4dc635)" style="fill: #6495ed; opacity: 0.3"/>
   </g>
   <g id="patch_175">
    <path d="M 369.569917 512.64 
L 380.169724 512.64 
L 380.169724 512.64 
L 369.569917 512.64 
z
" clip-path="url(#p024c4dc635)" style="fill: #6495ed; opacity: 0.3"/>
   </g>
   <g id="patch_176">
    <path d="M 382.819676 512.64 
L 393.419483 512.64 
L 393.419483 512.64 
L 382.819676 512.64 
z
" clip-path="url(#p024c4dc635)" style="fill: #6495ed; opacity: 0.3"/>
   </g>
   <g id="patch_177">
    <path d="M 396.069435 512.64 
L 406.669242 512.64 
L 406.669242 499.84 
L 396.069435 499.84 
z
" clip-path="url(#p024c4dc635)" style="fill: #6495ed; opacity: 0.3"/>
   </g>
   <g id="patch_178">
    <path d="M 409.319194 512.64 
L 419.919002 512.64 
L 419.919002 512.64 
L 409.319194 512.64 
z
" clip-path="url(#p024c4dc635)" style="fill: #6495ed; opacity: 0.3"/>
   </g>
   <g id="patch_179">
    <path d="M 422.568953 512.64 
L 433.168761 512.64 
L 433.168761 512.64 
L 422.568953 512.64 
z
" clip-path="url(#p024c4dc635)" style="fill: #6495ed; opacity: 0.3"/>
   </g>
   <g id="patch_180">
    <path d="M 435.818713 512.64 
L 446.41852 512.64 
L 446.41852 512.64 
L 435.818713 512.64 
z
" clip-path="url(#p024c4dc635)" style="fill: #6495ed; opacity: 0.3"/>
   </g>
   <g id="patch_181">
    <path d="M 449.068472 512.64 
L 459.668279 512.64 
L 459.668279 512.64 
L 449.068472 512.64 
z
" clip-path="url(#p024c4dc635)" style="fill: #6495ed; opacity: 0.3"/>
   </g>
   <g id="patch_182">
    <path d="M 462.318231 512.64 
L 472.918038 512.64 
L 472.918038 512.64 
L 462.318231 512.64 
z
" clip-path="url(#p024c4dc635)" style="fill: #6495ed; opacity: 0.3"/>
   </g>
   <g id="patch_183">
    <path d="M 475.56799 512.64 
L 486.167797 512.64 
L 486.167797 512.64 
L 475.56799 512.64 
z
" clip-path="url(#p024c4dc635)" style="fill: #6495ed; opacity: 0.3"/>
   </g>
   <g id="patch_184">
    <path d="M 488.817749 512.64 
L 499.417556 512.64 
L 499.417556 512.64 
L 488.817749 512.64 
z
" clip-path="url(#p024c4dc635)" style="fill: #6495ed; opacity: 0.3"/>
   </g>
   <g id="patch_185">
    <path d="M 502.067508 512.64 
L 512.667315 512.64 
L 512.667315 512.64 
L 502.067508 512.64 
z
" clip-path="url(#p024c4dc635)" style="fill: #6495ed; opacity: 0.3"/>
   </g>
   <g id="patch_186">
    <path d="M 515.317267 512.64 
L 525.917074 512.64 
L 525.917074 512.64 
L 515.317267 512.64 
z
" clip-path="url(#p024c4dc635)" style="fill: #6495ed; opacity: 0.3"/>
   </g>
   <g id="patch_187">
    <path d="M 528.567026 512.64 
L 539.166833 512.64 
L 539.166833 512.64 
L 528.567026 512.64 
z
" clip-path="url(#p024c4dc635)" style="fill: #6495ed; opacity: 0.3"/>
   </g>
   <g id="patch_188">
    <path d="M 541.816785 512.64 
L 552.416593 512.64 
L 552.416593 512.64 
L 541.816785 512.64 
z
" clip-path="url(#p024c4dc635)" style="fill: #6495ed; opacity: 0.3"/>
   </g>
   <g id="patch_189">
    <path d="M 555.066544 512.64 
L 565.666352 512.64 
L 565.666352 512.64 
L 555.066544 512.64 
z
" clip-path="url(#p024c4dc635)" style="fill: #6495ed; opacity: 0.3"/>
   </g>
   <g id="patch_190">
    <path d="M 568.316304 512.64 
L 578.916111 512.64 
L 578.916111 512.64 
L 568.316304 512.64 
z
" clip-path="url(#p024c4dc635)" style="fill: #6495ed; opacity: 0.3"/>
   </g>
   <g id="patch_191">
    <path d="M 581.566063 512.64 
L 592.16587 512.64 
L 592.16587 512.64 
L 581.566063 512.64 
z
" clip-path="url(#p024c4dc635)" style="fill: #6495ed; opacity: 0.3"/>
   </g>
   <g id="patch_192">
    <path d="M 594.815822 512.64 
L 605.415629 512.64 
L 605.415629 512.64 
L 594.815822 512.64 
z
" clip-path="url(#p024c4dc635)" style="fill: #6495ed; opacity: 0.3"/>
   </g>
   <g id="patch_193">
    <path d="M 608.065581 512.64 
L 618.665388 512.64 
L 618.665388 512.64 
L 608.065581 512.64 
z
" clip-path="url(#p024c4dc635)" style="fill: #6495ed; opacity: 0.3"/>
   </g>
   <g id="patch_194">
    <path d="M 621.31534 512.64 
L 631.915147 512.64 
L 631.915147 512.64 
L 621.31534 512.64 
z
" clip-path="url(#p024c4dc635)" style="fill: #6495ed; opacity: 0.3"/>
   </g>
   <g id="patch_195">
    <path d="M 634.565099 512.64 
L 645.164906 512.64 
L 645.164906 512.64 
L 634.565099 512.64 
z
" clip-path="url(#p024c4dc635)" style="fill: #6495ed; opacity: 0.3"/>
   </g>
   <g id="patch_196">
    <path d="M 647.814858 512.64 
L 658.414665 512.64 
L 658.414665 512.64 
L 647.814858 512.64 
z
" clip-path="url(#p024c4dc635)" style="fill: #6495ed; opacity: 0.3"/>
   </g>
   <g id="patch_197">
    <path d="M 661.064617 512.64 
L 671.664424 512.64 
L 671.664424 512.64 
L 661.064617 512.64 
z
" clip-path="url(#p024c4dc635)" style="fill: #6495ed; opacity: 0.3"/>
   </g>
   <g id="patch_198">
    <path d="M 674.314376 512.64 
L 684.914184 512.64 
L 684.914184 512.64 
L 674.314376 512.64 
z
" clip-path="url(#p024c4dc635)" style="fill: #6495ed; opacity: 0.3"/>
   </g>
   <g id="patch_199">
    <path d="M 687.564135 512.64 
L 698.163943 512.64 
L 698.163943 512.64 
L 687.564135 512.64 
z
" clip-path="url(#p024c4dc635)" style="fill: #6495ed; opacity: 0.3"/>
   </g>
   <g id="patch_200">
    <path d="M 700.813895 512.64 
L 711.413702 512.64 
L 711.413702 512.64 
L 700.813895 512.64 
z
" clip-path="url(#p024c4dc635)" style="fill: #6495ed; opacity: 0.3"/>
   </g>
   <g id="patch_201">
    <path d="M 714.063654 512.64 
L 724.663461 512.64 
L 724.663461 512.64 
L 714.063654 512.64 
z
" clip-path="url(#p024c4dc635)" style="fill: #6495ed; opacity: 0.3"/>
   </g>
   <g id="patch_202">
    <path d="M 727.313413 512.64 
L 737.91322 512.64 
L 737.91322 512.64 
L 727.313413 512.64 
z
" clip-path="url(#p024c4dc635)" style="fill: #6495ed; opacity: 0.3"/>
   </g>
   <g id="patch_203">
    <path d="M 740.563172 512.64 
L 751.162979 512.64 
L 751.162979 512.64 
L 740.563172 512.64 
z
" clip-path="url(#p024c4dc635)" style="fill: #6495ed; opacity: 0.3"/>
   </g>
   <g id="patch_204">
    <path d="M 753.812931 512.64 
L 764.412738 512.64 
L 764.412738 512.64 
L 753.812931 512.64 
z
" clip-path="url(#p024c4dc635)" style="fill: #6495ed; opacity: 0.3"/>
   </g>
   <g id="patch_205">
    <path d="M 767.06269 512.64 
L 777.662497 512.64 
L 777.662497 512.64 
L 767.06269 512.64 
z
" clip-path="url(#p024c4dc635)" style="fill: #6495ed; opacity: 0.3"/>
   </g>
   <g id="patch_206">
    <path d="M 780.312449 512.64 
L 790.912256 512.64 
L 790.912256 512.64 
L 780.312449 512.64 
z
" clip-path="url(#p024c4dc635)" style="fill: #6495ed; opacity: 0.3"/>
   </g>
   <g id="patch_207">
    <path d="M 793.562208 512.64 
L 804.162015 512.64 
L 804.162015 512.64 
L 793.562208 512.64 
z
" clip-path="url(#p024c4dc635)" style="fill: #6495ed; opacity: 0.3"/>
   </g>
   <g id="patch_208">
    <path d="M 806.811967 512.64 
L 817.411775 512.64 
L 817.411775 512.64 
L 806.811967 512.64 
z
" clip-path="url(#p024c4dc635)" style="fill: #6495ed; opacity: 0.3"/>
   </g>
   <g id="patch_209">
    <path d="M 820.061726 512.64 
L 830.661534 512.64 
L 830.661534 512.64 
L 820.061726 512.64 
z
" clip-path="url(#p024c4dc635)" style="fill: #6495ed; opacity: 0.3"/>
   </g>
   <g id="patch_210">
    <path d="M 833.311486 512.64 
L 843.911293 512.64 
L 843.911293 512.64 
L 833.311486 512.64 
z
" clip-path="url(#p024c4dc635)" style="fill: #6495ed; opacity: 0.3"/>
   </g>
   <g id="patch_211">
    <path d="M 846.561245 512.64 
L 857.161052 512.64 
L 857.161052 512.64 
L 846.561245 512.64 
z
" clip-path="url(#p024c4dc635)" style="fill: #6495ed; opacity: 0.3"/>
   </g>
   <g id="patch_212">
    <path d="M 859.811004 512.64 
L 870.410811 512.64 
L 870.410811 512.64 
L 859.811004 512.64 
z
" clip-path="url(#p024c4dc635)" style="fill: #6495ed; opacity: 0.3"/>
   </g>
   <g id="patch_213">
    <path d="M 873.060763 512.64 
L 883.66057 512.64 
L 883.66057 512.64 
L 873.060763 512.64 
z
" clip-path="url(#p024c4dc635)" style="fill: #6495ed; opacity: 0.3"/>
   </g>
   <g id="patch_214">
    <path d="M 886.310522 512.64 
L 896.910329 512.64 
L 896.910329 512.64 
L 886.310522 512.64 
z
" clip-path="url(#p024c4dc635)" style="fill: #6495ed; opacity: 0.3"/>
   </g>
   <g id="patch_215">
    <path d="M 899.560281 512.64 
L 910.160088 512.64 
L 910.160088 512.64 
L 899.560281 512.64 
z
" clip-path="url(#p024c4dc635)" style="fill: #6495ed; opacity: 0.3"/>
   </g>
   <g id="patch_216">
    <path d="M 912.81004 512.64 
L 923.409847 512.64 
L 923.409847 512.64 
L 912.81004 512.64 
z
" clip-path="url(#p024c4dc635)" style="fill: #6495ed; opacity: 0.3"/>
   </g>
   <g id="patch_217">
    <path d="M 926.059799 512.64 
L 936.659606 512.64 
L 936.659606 512.64 
L 926.059799 512.64 
z
" clip-path="url(#p024c4dc635)" style="fill: #6495ed; opacity: 0.3"/>
   </g>
   <g id="patch_218">
    <path d="M 939.309558 512.64 
L 949.909366 512.64 
L 949.909366 512.64 
L 939.309558 512.64 
z
" clip-path="url(#p024c4dc635)" style="fill: #6495ed; opacity: 0.3"/>
   </g>
   <g id="patch_219">
    <path d="M 952.559317 512.64 
L 963.159125 512.64 
L 963.159125 512.64 
L 952.559317 512.64 
z
" clip-path="url(#p024c4dc635)" style="fill: #6495ed; opacity: 0.3"/>
   </g>
   <g id="patch_220">
    <path d="M 965.809077 512.64 
L 976.408884 512.64 
L 976.408884 512.64 
L 965.809077 512.64 
z
" clip-path="url(#p024c4dc635)" style="fill: #6495ed; opacity: 0.3"/>
   </g>
   <g id="patch_221">
    <path d="M 979.058836 512.64 
L 989.658643 512.64 
L 989.658643 512.64 
L 979.058836 512.64 
z
" clip-path="url(#p024c4dc635)" style="fill: #6495ed; opacity: 0.3"/>
   </g>
   <g id="patch_222">
    <path d="M 992.308595 512.64 
L 1002.908402 512.64 
L 1002.908402 512.64 
L 992.308595 512.64 
z
" clip-path="url(#p024c4dc635)" style="fill: #6495ed; opacity: 0.3"/>
   </g>
   <g id="patch_223">
    <path d="M 1005.558354 512.64 
L 1016.158161 512.64 
L 1016.158161 512.64 
L 1005.558354 512.64 
z
" clip-path="url(#p024c4dc635)" style="fill: #6495ed; opacity: 0.3"/>
   </g>
   <g id="patch_224">
    <path d="M 1018.808113 512.64 
L 1029.40792 512.64 
L 1029.40792 512.64 
L 1018.808113 512.64 
z
" clip-path="url(#p024c4dc635)" style="fill: #6495ed; opacity: 0.3"/>
   </g>
   <g id="patch_225">
    <path d="M 1032.057872 512.64 
L 1042.657679 512.64 
L 1042.657679 512.64 
L 1032.057872 512.64 
z
" clip-path="url(#p024c4dc635)" style="fill: #6495ed; opacity: 0.3"/>
   </g>
   <g id="patch_226">
    <path d="M 1045.307631 512.64 
L 1055.907438 512.64 
L 1055.907438 512.64 
L 1045.307631 512.64 
z
" clip-path="url(#p024c4dc635)" style="fill: #6495ed; opacity: 0.3"/>
   </g>
   <g id="patch_227">
    <path d="M 1058.55739 512.64 
L 1069.157197 512.64 
L 1069.157197 512.64 
L 1058.55739 512.64 
z
" clip-path="url(#p024c4dc635)" style="fill: #6495ed; opacity: 0.3"/>
   </g>
   <g id="patch_228">
    <path d="M 1071.807149 512.64 
L 1082.406957 512.64 
L 1082.406957 512.64 
L 1071.807149 512.64 
z
" clip-path="url(#p024c4dc635)" style="fill: #6495ed; opacity: 0.3"/>
   </g>
   <g id="patch_229">
    <path d="M 1085.056908 512.64 
L 1095.656716 512.64 
L 1095.656716 512.64 
L 1085.056908 512.64 
z
" clip-path="url(#p024c4dc635)" style="fill: #6495ed; opacity: 0.3"/>
   </g>
   <g id="patch_230">
    <path d="M 1098.306668 512.64 
L 1108.906475 512.64 
L 1108.906475 499.84 
L 1098.306668 499.84 
z
" clip-path="url(#p024c4dc635)" style="fill: #6495ed; opacity: 0.3"/>
   </g>
   <g id="patch_231">
    <path d="M 1111.556427 512.64 
L 1122.156234 512.64 
L 1122.156234 512.64 
L 1111.556427 512.64 
z
" clip-path="url(#p024c4dc635)" style="fill: #6495ed; opacity: 0.3"/>
   </g>
   <g id="patch_232">
    <path d="M 1124.806186 512.64 
L 1135.405993 512.64 
L 1135.405993 512.64 
L 1124.806186 512.64 
z
" clip-path="url(#p024c4dc635)" style="fill: #6495ed; opacity: 0.3"/>
   </g>
   <g id="patch_233">
    <path d="M 1138.055945 512.64 
L 1148.655752 512.64 
L 1148.655752 512.64 
L 1138.055945 512.64 
z
" clip-path="url(#p024c4dc635)" style="fill: #6495ed; opacity: 0.3"/>
   </g>
   <g id="patch_234">
    <path d="M 1151.305704 512.64 
L 1161.905511 512.64 
L 1161.905511 512.64 
L 1151.305704 512.64 
z
" clip-path="url(#p024c4dc635)" style="fill: #6495ed; opacity: 0.3"/>
   </g>
   <g id="patch_235">
    <path d="M 1164.555463 512.64 
L 1175.15527 512.64 
L 1175.15527 512.64 
L 1164.555463 512.64 
z
" clip-path="url(#p024c4dc635)" style="fill: #6495ed; opacity: 0.3"/>
   </g>
   <g id="patch_236">
    <path d="M 1177.805222 512.64 
L 1188.405029 512.64 
L 1188.405029 512.64 
L 1177.805222 512.64 
z
" clip-path="url(#p024c4dc635)" style="fill: #6495ed; opacity: 0.3"/>
   </g>
   <g id="patch_237">
    <path d="M 1191.054981 512.64 
L 1201.654788 512.64 
L 1201.654788 512.64 
L 1191.054981 512.64 
z
" clip-path="url(#p024c4dc635)" style="fill: #6495ed; opacity: 0.3"/>
   </g>
   <g id="patch_238">
    <path d="M 1204.30474 512.64 
L 1214.904548 512.64 
L 1214.904548 512.64 
L 1204.30474 512.64 
z
" clip-path="url(#p024c4dc635)" style="fill: #6495ed; opacity: 0.3"/>
   </g>
   <g id="patch_239">
    <path d="M 1217.554499 512.64 
L 1228.154307 512.64 
L 1228.154307 512.64 
L 1217.554499 512.64 
z
" clip-path="url(#p024c4dc635)" style="fill: #6495ed; opacity: 0.3"/>
   </g>
   <g id="patch_240">
    <path d="M 1230.804259 512.64 
L 1241.404066 512.64 
L 1241.404066 512.64 
L 1230.804259 512.64 
z
" clip-path="url(#p024c4dc635)" style="fill: #6495ed; opacity: 0.3"/>
   </g>
   <g id="patch_241">
    <path d="M 1244.054018 512.64 
L 1254.653825 512.64 
L 1254.653825 512.64 
L 1244.054018 512.64 
z
" clip-path="url(#p024c4dc635)" style="fill: #6495ed; opacity: 0.3"/>
   </g>
   <g id="patch_242">
    <path d="M 1257.303777 512.64 
L 1267.903584 512.64 
L 1267.903584 512.64 
L 1257.303777 512.64 
z
" clip-path="url(#p024c4dc635)" style="fill: #6495ed; opacity: 0.3"/>
   </g>
   <g id="patch_243">
    <path d="M 1270.553536 512.64 
L 1281.153343 512.64 
L 1281.153343 512.64 
L 1270.553536 512.64 
z
" clip-path="url(#p024c4dc635)" style="fill: #6495ed; opacity: 0.3"/>
   </g>
   <g id="patch_244">
    <path d="M 1283.803295 512.64 
L 1294.403102 512.64 
L 1294.403102 512.64 
L 1283.803295 512.64 
z
" clip-path="url(#p024c4dc635)" style="fill: #6495ed; opacity: 0.3"/>
   </g>
   <g id="patch_245">
    <path d="M 1297.053054 512.64 
L 1307.652861 512.64 
L 1307.652861 512.64 
L 1297.053054 512.64 
z
" clip-path="url(#p024c4dc635)" style="fill: #6495ed; opacity: 0.3"/>
   </g>
   <g id="patch_246">
    <path d="M 1310.302813 512.64 
L 1320.90262 512.64 
L 1320.90262 512.64 
L 1310.302813 512.64 
z
" clip-path="url(#p024c4dc635)" style="fill: #6495ed; opacity: 0.3"/>
   </g>
   <g id="patch_247">
    <path d="M 1323.552572 512.64 
L 1334.152379 512.64 
L 1334.152379 512.64 
L 1323.552572 512.64 
z
" clip-path="url(#p024c4dc635)" style="fill: #6495ed; opacity: 0.3"/>
   </g>
   <g id="patch_248">
    <path d="M 1336.802331 512.64 
L 1347.402139 512.64 
L 1347.402139 512.64 
L 1336.802331 512.64 
z
" clip-path="url(#p024c4dc635)" style="fill: #6495ed; opacity: 0.3"/>
   </g>
   <g id="patch_249">
    <path d="M 1350.05209 512.64 
L 1360.651898 512.64 
L 1360.651898 512.64 
L 1350.05209 512.64 
z
" clip-path="url(#p024c4dc635)" style="fill: #6495ed; opacity: 0.3"/>
   </g>
   <g id="patch_250">
    <path d="M 1363.30185 512.64 
L 1373.901657 512.64 
L 1373.901657 512.64 
L 1363.30185 512.64 
z
" clip-path="url(#p024c4dc635)" style="fill: #6495ed; opacity: 0.3"/>
   </g>
   <g id="patch_251">
    <path d="M 1376.551609 512.64 
L 1387.151416 512.64 
L 1387.151416 512.64 
L 1376.551609 512.64 
z
" clip-path="url(#p024c4dc635)" style="fill: #6495ed; opacity: 0.3"/>
   </g>
   <g id="patch_252">
    <path d="M 1389.801368 512.64 
L 1400.401175 512.64 
L 1400.401175 512.64 
L 1389.801368 512.64 
z
" clip-path="url(#p024c4dc635)" style="fill: #6495ed; opacity: 0.3"/>
   </g>
   <g id="patch_253">
    <path d="M 1403.051127 512.64 
L 1413.650934 512.64 
L 1413.650934 512.64 
L 1403.051127 512.64 
z
" clip-path="url(#p024c4dc635)" style="fill: #6495ed; opacity: 0.3"/>
   </g>
   <g id="patch_254">
    <path d="M 1416.300886 512.64 
L 1426.900693 512.64 
L 1426.900693 512.64 
L 1416.300886 512.64 
z
" clip-path="url(#p024c4dc635)" style="fill: #6495ed; opacity: 0.3"/>
   </g>
   <g id="patch_255">
    <path d="M 1429.550645 512.64 
L 1440.150452 512.64 
L 1440.150452 512.64 
L 1429.550645 512.64 
z
" clip-path="url(#p024c4dc635)" style="fill: #6495ed; opacity: 0.3"/>
   </g>
   <g id="patch_256">
    <path d="M 1442.800404 512.64 
L 1453.400211 512.64 
L 1453.400211 512.64 
L 1442.800404 512.64 
z
" clip-path="url(#p024c4dc635)" style="fill: #6495ed; opacity: 0.3"/>
   </g>
   <g id="patch_257">
    <path d="M 1456.050163 512.64 
L 1466.64997 512.64 
L 1466.64997 512.64 
L 1456.050163 512.64 
z
" clip-path="url(#p024c4dc635)" style="fill: #6495ed; opacity: 0.3"/>
   </g>
   <g id="patch_258">
    <path d="M 1469.299922 512.64 
L 1479.89973 512.64 
L 1479.89973 512.64 
L 1469.299922 512.64 
z
" clip-path="url(#p024c4dc635)" style="fill: #6495ed; opacity: 0.3"/>
   </g>
   <g id="patch_259">
    <path d="M 1482.549681 512.64 
L 1493.149489 512.64 
L 1493.149489 512.64 
L 1482.549681 512.64 
z
" clip-path="url(#p024c4dc635)" style="fill: #6495ed; opacity: 0.3"/>
   </g>
   <g id="patch_260">
    <path d="M 1495.799441 512.64 
L 1506.399248 512.64 
L 1506.399248 512.64 
L 1495.799441 512.64 
z
" clip-path="url(#p024c4dc635)" style="fill: #6495ed; opacity: 0.3"/>
   </g>
   <g id="patch_261">
    <path d="M 1509.0492 512.64 
L 1519.649007 512.64 
L 1519.649007 512.64 
L 1509.0492 512.64 
z
" clip-path="url(#p024c4dc635)" style="fill: #6495ed; opacity: 0.3"/>
   </g>
   <g id="patch_262">
    <path d="M 1522.298959 512.64 
L 1532.898766 512.64 
L 1532.898766 512.64 
L 1522.298959 512.64 
z
" clip-path="url(#p024c4dc635)" style="fill: #6495ed; opacity: 0.3"/>
   </g>
   <g id="patch_263">
    <path d="M 1535.548718 512.64 
L 1546.148525 512.64 
L 1546.148525 512.64 
L 1535.548718 512.64 
z
" clip-path="url(#p024c4dc635)" style="fill: #6495ed; opacity: 0.3"/>
   </g>
   <g id="patch_264">
    <path d="M 1548.798477 512.64 
L 1559.398284 512.64 
L 1559.398284 512.64 
L 1548.798477 512.64 
z
" clip-path="url(#p024c4dc635)" style="fill: #6495ed; opacity: 0.3"/>
   </g>
   <g id="patch_265">
    <path d="M 1562.048236 512.64 
L 1572.648043 512.64 
L 1572.648043 512.64 
L 1562.048236 512.64 
z
" clip-path="url(#p024c4dc635)" style="fill: #6495ed; opacity: 0.3"/>
   </g>
   <g id="patch_266">
    <path d="M 1575.297995 512.64 
L 1585.897802 512.64 
L 1585.897802 512.64 
L 1575.297995 512.64 
z
" clip-path="url(#p024c4dc635)" style="fill: #6495ed; opacity: 0.3"/>
   </g>
   <g id="patch_267">
    <path d="M 1588.547754 512.64 
L 1599.147561 512.64 
L 1599.147561 512.64 
L 1588.547754 512.64 
z
" clip-path="url(#p024c4dc635)" style="fill: #6495ed; opacity: 0.3"/>
   </g>
   <g id="patch_268">
    <path d="M 1601.797513 512.64 
L 1612.397321 512.64 
L 1612.397321 512.64 
L 1601.797513 512.64 
z
" clip-path="url(#p024c4dc635)" style="fill: #6495ed; opacity: 0.3"/>
   </g>
   <g id="patch_269">
    <path d="M 1615.047272 512.64 
L 1625.64708 512.64 
L 1625.64708 512.64 
L 1615.047272 512.64 
z
" clip-path="url(#p024c4dc635)" style="fill: #6495ed; opacity: 0.3"/>
   </g>
   <g id="patch_270">
    <path d="M 1628.297032 512.64 
L 1638.896839 512.64 
L 1638.896839 512.64 
L 1628.297032 512.64 
z
" clip-path="url(#p024c4dc635)" style="fill: #6495ed; opacity: 0.3"/>
   </g>
   <g id="patch_271">
    <path d="M 1641.546791 512.64 
L 1652.146598 512.64 
L 1652.146598 512.64 
L 1641.546791 512.64 
z
" clip-path="url(#p024c4dc635)" style="fill: #6495ed; opacity: 0.3"/>
   </g>
   <g id="patch_272">
    <path d="M 1654.79655 512.64 
L 1665.396357 512.64 
L 1665.396357 512.64 
L 1654.79655 512.64 
z
" clip-path="url(#p024c4dc635)" style="fill: #6495ed; opacity: 0.3"/>
   </g>
   <g id="patch_273">
    <path d="M 1668.046309 512.64 
L 1678.646116 512.64 
L 1678.646116 512.64 
L 1668.046309 512.64 
z
" clip-path="url(#p024c4dc635)" style="fill: #6495ed; opacity: 0.3"/>
   </g>
   <g id="patch_274">
    <path d="M 1681.296068 512.64 
L 1691.895875 512.64 
L 1691.895875 512.64 
L 1681.296068 512.64 
z
" clip-path="url(#p024c4dc635)" style="fill: #6495ed; opacity: 0.3"/>
   </g>
   <g id="patch_275">
    <path d="M 1694.545827 512.64 
L 1705.145634 512.64 
L 1705.145634 512.64 
L 1694.545827 512.64 
z
" clip-path="url(#p024c4dc635)" style="fill: #6495ed; opacity: 0.3"/>
   </g>
   <g id="patch_276">
    <path d="M 1707.795586 512.64 
L 1718.395393 512.64 
L 1718.395393 512.64 
L 1707.795586 512.64 
z
" clip-path="url(#p024c4dc635)" style="fill: #6495ed; opacity: 0.3"/>
   </g>
   <g id="patch_277">
    <path d="M 1721.045345 512.64 
L 1731.645152 512.64 
L 1731.645152 512.64 
L 1721.045345 512.64 
z
" clip-path="url(#p024c4dc635)" style="fill: #6495ed; opacity: 0.3"/>
   </g>
   <g id="patch_278">
    <path d="M 1734.295104 512.64 
L 1744.894912 512.64 
L 1744.894912 512.64 
L 1734.295104 512.64 
z
" clip-path="url(#p024c4dc635)" style="fill: #6495ed; opacity: 0.3"/>
   </g>
   <g id="patch_279">
    <path d="M 1747.544863 512.64 
L 1758.144671 512.64 
L 1758.144671 512.64 
L 1747.544863 512.64 
z
" clip-path="url(#p024c4dc635)" style="fill: #6495ed; opacity: 0.3"/>
   </g>
   <g id="patch_280">
    <path d="M 1760.794623 512.64 
L 1771.39443 512.64 
L 1771.39443 512.64 
L 1760.794623 512.64 
z
" clip-path="url(#p024c4dc635)" style="fill: #6495ed; opacity: 0.3"/>
   </g>
   <g id="patch_281">
    <path d="M 1774.044382 512.64 
L 1784.644189 512.64 
L 1784.644189 512.64 
L 1774.044382 512.64 
z
" clip-path="url(#p024c4dc635)" style="fill: #6495ed; opacity: 0.3"/>
   </g>
   <g id="patch_282">
    <path d="M 1787.294141 512.64 
L 1797.893948 512.64 
L 1797.893948 512.64 
L 1787.294141 512.64 
z
" clip-path="url(#p024c4dc635)" style="fill: #6495ed; opacity: 0.3"/>
   </g>
   <g id="patch_283">
    <path d="M 1800.5439 512.64 
L 1811.143707 512.64 
L 1811.143707 512.64 
L 1800.5439 512.64 
z
" clip-path="url(#p024c4dc635)" style="fill: #6495ed; opacity: 0.3"/>
   </g>
   <g id="patch_284">
    <path d="M 1813.793659 512.64 
L 1824.393466 512.64 
L 1824.393466 512.64 
L 1813.793659 512.64 
z
" clip-path="url(#p024c4dc635)" style="fill: #6495ed; opacity: 0.3"/>
   </g>
   <g id="patch_285">
    <path d="M 1827.043418 512.64 
L 1837.643225 512.64 
L 1837.643225 512.64 
L 1827.043418 512.64 
z
" clip-path="url(#p024c4dc635)" style="fill: #6495ed; opacity: 0.3"/>
   </g>
   <g id="patch_286">
    <path d="M 1840.293177 512.64 
L 1850.892984 512.64 
L 1850.892984 512.64 
L 1840.293177 512.64 
z
" clip-path="url(#p024c4dc635)" style="fill: #6495ed; opacity: 0.3"/>
   </g>
   <g id="patch_287">
    <path d="M 1853.542936 512.64 
L 1864.142743 512.64 
L 1864.142743 512.64 
L 1853.542936 512.64 
z
" clip-path="url(#p024c4dc635)" style="fill: #6495ed; opacity: 0.3"/>
   </g>
   <g id="patch_288">
    <path d="M 1866.792695 512.64 
L 1877.392503 512.64 
L 1877.392503 512.64 
L 1866.792695 512.64 
z
" clip-path="url(#p024c4dc635)" style="fill: #6495ed; opacity: 0.3"/>
   </g>
   <g id="patch_289">
    <path d="M 1880.042454 512.64 
L 1890.642262 512.64 
L 1890.642262 512.64 
L 1880.042454 512.64 
z
" clip-path="url(#p024c4dc635)" style="fill: #6495ed; opacity: 0.3"/>
   </g>
   <g id="patch_290">
    <path d="M 1893.292214 512.64 
L 1903.892021 512.64 
L 1903.892021 512.64 
L 1893.292214 512.64 
z
" clip-path="url(#p024c4dc635)" style="fill: #6495ed; opacity: 0.3"/>
   </g>
   <g id="patch_291">
    <path d="M 1906.541973 512.64 
L 1917.14178 512.64 
L 1917.14178 512.64 
L 1906.541973 512.64 
z
" clip-path="url(#p024c4dc635)" style="fill: #6495ed; opacity: 0.3"/>
   </g>
   <g id="patch_292">
    <path d="M 1919.791732 512.64 
L 1930.391539 512.64 
L 1930.391539 512.64 
L 1919.791732 512.64 
z
" clip-path="url(#p024c4dc635)" style="fill: #6495ed; opacity: 0.3"/>
   </g>
   <g id="patch_293">
    <path d="M 1933.041491 512.64 
L 1943.641298 512.64 
L 1943.641298 512.64 
L 1933.041491 512.64 
z
" clip-path="url(#p024c4dc635)" style="fill: #6495ed; opacity: 0.3"/>
   </g>
   <g id="patch_294">
    <path d="M 1946.29125 512.64 
L 1956.891057 512.64 
L 1956.891057 512.64 
L 1946.29125 512.64 
z
" clip-path="url(#p024c4dc635)" style="fill: #6495ed; opacity: 0.3"/>
   </g>
   <g id="patch_295">
    <path d="M 1959.541009 512.64 
L 1970.140816 512.64 
L 1970.140816 512.64 
L 1959.541009 512.64 
z
" clip-path="url(#p024c4dc635)" style="fill: #6495ed; opacity: 0.3"/>
   </g>
   <g id="patch_296">
    <path d="M 1972.790768 512.64 
L 1983.390575 512.64 
L 1983.390575 512.64 
L 1972.790768 512.64 
z
" clip-path="url(#p024c4dc635)" style="fill: #6495ed; opacity: 0.3"/>
   </g>
   <g id="patch_297">
    <path d="M 1986.040527 512.64 
L 1996.640334 512.64 
L 1996.640334 512.64 
L 1986.040527 512.64 
z
" clip-path="url(#p024c4dc635)" style="fill: #6495ed; opacity: 0.3"/>
   </g>
   <g id="patch_298">
    <path d="M 1999.290286 512.64 
L 2009.890094 512.64 
L 2009.890094 512.64 
L 1999.290286 512.64 
z
" clip-path="url(#p024c4dc635)" style="fill: #6495ed; opacity: 0.3"/>
   </g>
   <g id="patch_299">
    <path d="M 2012.540045 512.64 
L 2023.139853 512.64 
L 2023.139853 512.64 
L 2012.540045 512.64 
z
" clip-path="url(#p024c4dc635)" style="fill: #6495ed; opacity: 0.3"/>
   </g>
   <g id="patch_300">
    <path d="M 2025.789805 512.64 
L 2036.389612 512.64 
L 2036.389612 512.64 
L 2025.789805 512.64 
z
" clip-path="url(#p024c4dc635)" style="fill: #6495ed; opacity: 0.3"/>
   </g>
   <g id="patch_301">
    <path d="M 2039.039564 512.64 
L 2049.639371 512.64 
L 2049.639371 512.64 
L 2039.039564 512.64 
z
" clip-path="url(#p024c4dc635)" style="fill: #6495ed; opacity: 0.3"/>
   </g>
   <g id="patch_302">
    <path d="M 2052.289323 512.64 
L 2062.88913 512.64 
L 2062.88913 512.64 
L 2052.289323 512.64 
z
" clip-path="url(#p024c4dc635)" style="fill: #6495ed; opacity: 0.3"/>
   </g>
   <g id="patch_303">
    <path d="M 2065.539082 512.64 
L 2076.138889 512.64 
L 2076.138889 499.84 
L 2065.539082 499.84 
z
" clip-path="url(#p024c4dc635)" style="fill: #6495ed; opacity: 0.3"/>
   </g>
   <g id="matplotlib.axis_1">
    <g id="xtick_1">
     <g id="line2d_1">
      <defs>
       <path id="m5dfb198cc0" d="M 0 0 
L 0 3.5 
" style="stroke: #000000; stroke-width: 0.8"/>
      </defs>
      <g>
       <use xlink:href="#m5dfb198cc0" x="90" y="512.64" style="stroke: #000000; stroke-width: 0.8"/>
      </g>
     </g>
     <g id="text_1">
      <!-- 0.0 -->
      <g transform="translate(82.048438 527.238438) scale(0.1 -0.1)">
       <defs>
        <path id="DejaVuSans-30" d="M 2034 4250 
Q 1547 4250 1301 3770 
Q 1056 3291 1056 2328 
Q 1056 1369 1301 889 
Q 1547 409 2034 409 
Q 2525 409 2770 889 
Q 3016 1369 3016 2328 
Q 3016 3291 2770 3770 
Q 2525 4250 2034 4250 
z
M 2034 4750 
Q 2819 4750 3233 4129 
Q 3647 3509 3647 2328 
Q 3647 1150 3233 529 
Q 2819 -91 2034 -91 
Q 1250 -91 836 529 
Q 422 1150 422 2328 
Q 422 3509 836 4129 
Q 1250 4750 2034 4750 
z
" transform="scale(0.015625)"/>
        <path id="DejaVuSans-2e" d="M 684 794 
L 1344 794 
L 1344 0 
L 684 0 
L 684 794 
z
" transform="scale(0.015625)"/>
       </defs>
       <use xlink:href="#DejaVuSans-30"/>
       <use xlink:href="#DejaVuSans-2e" transform="translate(63.623047 0)"/>
       <use xlink:href="#DejaVuSans-30" transform="translate(95.410156 0)"/>
      </g>
     </g>
    </g>
    <g id="xtick_2">
     <g id="line2d_2">
      <g>
       <use xlink:href="#m5dfb198cc0" x="183" y="512.64" style="stroke: #000000; stroke-width: 0.8"/>
      </g>
     </g>
     <g id="text_2">
      <!-- 0.5 -->
      <g transform="translate(175.048438 527.238438) scale(0.1 -0.1)">
       <defs>
        <path id="DejaVuSans-35" d="M 691 4666 
L 3169 4666 
L 3169 4134 
L 1269 4134 
L 1269 2991 
Q 1406 3038 1543 3061 
Q 1681 3084 1819 3084 
Q 2600 3084 3056 2656 
Q 3513 2228 3513 1497 
Q 3513 744 3044 326 
Q 2575 -91 1722 -91 
Q 1428 -91 1123 -41 
Q 819 9 494 109 
L 494 744 
Q 775 591 1075 516 
Q 1375 441 1709 441 
Q 2250 441 2565 725 
Q 2881 1009 2881 1497 
Q 2881 1984 2565 2268 
Q 2250 2553 1709 2553 
Q 1456 2553 1204 2497 
Q 953 2441 691 2322 
L 691 4666 
z
" transform="scale(0.015625)"/>
       </defs>
       <use xlink:href="#DejaVuSans-30"/>
       <use xlink:href="#DejaVuSans-2e" transform="translate(63.623047 0)"/>
       <use xlink:href="#DejaVuSans-35" transform="translate(95.410156 0)"/>
      </g>
     </g>
    </g>
    <g id="xtick_3">
     <g id="line2d_3">
      <g>
       <use xlink:href="#m5dfb198cc0" x="276" y="512.64" style="stroke: #000000; stroke-width: 0.8"/>
      </g>
     </g>
     <g id="text_3">
      <!-- 1.0 -->
      <g transform="translate(268.048437 527.238438) scale(0.1 -0.1)">
       <defs>
        <path id="DejaVuSans-31" d="M 794 531 
L 1825 531 
L 1825 4091 
L 703 3866 
L 703 4441 
L 1819 4666 
L 2450 4666 
L 2450 531 
L 3481 531 
L 3481 0 
L 794 0 
L 794 531 
z
" transform="scale(0.015625)"/>
       </defs>
       <use xlink:href="#DejaVuSans-31"/>
       <use xlink:href="#DejaVuSans-2e" transform="translate(63.623047 0)"/>
       <use xlink:href="#DejaVuSans-30" transform="translate(95.410156 0)"/>
      </g>
     </g>
    </g>
    <g id="xtick_4">
     <g id="line2d_4">
      <g>
       <use xlink:href="#m5dfb198cc0" x="369" y="512.64" style="stroke: #000000; stroke-width: 0.8"/>
      </g>
     </g>
     <g id="text_4">
      <!-- 1.5 -->
      <g transform="translate(361.048437 527.238438) scale(0.1 -0.1)">
       <use xlink:href="#DejaVuSans-31"/>
       <use xlink:href="#DejaVuSans-2e" transform="translate(63.623047 0)"/>
       <use xlink:href="#DejaVuSans-35" transform="translate(95.410156 0)"/>
      </g>
     </g>
    </g>
    <g id="xtick_5">
     <g id="line2d_5">
      <g>
       <use xlink:href="#m5dfb198cc0" x="462" y="512.64" style="stroke: #000000; stroke-width: 0.8"/>
      </g>
     </g>
     <g id="text_5">
      <!-- 2.0 -->
      <g transform="translate(454.048437 527.238438) scale(0.1 -0.1)">
       <defs>
        <path id="DejaVuSans-32" d="M 1228 531 
L 3431 531 
L 3431 0 
L 469 0 
L 469 531 
Q 828 903 1448 1529 
Q 2069 2156 2228 2338 
Q 2531 2678 2651 2914 
Q 2772 3150 2772 3378 
Q 2772 3750 2511 3984 
Q 2250 4219 1831 4219 
Q 1534 4219 1204 4116 
Q 875 4013 500 3803 
L 500 4441 
Q 881 4594 1212 4672 
Q 1544 4750 1819 4750 
Q 2544 4750 2975 4387 
Q 3406 4025 3406 3419 
Q 3406 3131 3298 2873 
Q 3191 2616 2906 2266 
Q 2828 2175 2409 1742 
Q 1991 1309 1228 531 
z
" transform="scale(0.015625)"/>
       </defs>
       <use xlink:href="#DejaVuSans-32"/>
       <use xlink:href="#DejaVuSans-2e" transform="translate(63.623047 0)"/>
       <use xlink:href="#DejaVuSans-30" transform="translate(95.410156 0)"/>
      </g>
     </g>
    </g>
    <g id="xtick_6">
     <g id="line2d_6">
      <g>
       <use xlink:href="#m5dfb198cc0" x="555" y="512.64" style="stroke: #000000; stroke-width: 0.8"/>
      </g>
     </g>
     <g id="text_6">
      <!-- 2.5 -->
      <g transform="translate(547.048437 527.238438) scale(0.1 -0.1)">
       <use xlink:href="#DejaVuSans-32"/>
       <use xlink:href="#DejaVuSans-2e" transform="translate(63.623047 0)"/>
       <use xlink:href="#DejaVuSans-35" transform="translate(95.410156 0)"/>
      </g>
     </g>
    </g>
    <g id="xtick_7">
     <g id="line2d_7">
      <g>
       <use xlink:href="#m5dfb198cc0" x="648" y="512.64" style="stroke: #000000; stroke-width: 0.8"/>
      </g>
     </g>
     <g id="text_7">
      <!-- 3.0 -->
      <g transform="translate(640.048437 527.238438) scale(0.1 -0.1)">
       <defs>
        <path id="DejaVuSans-33" d="M 2597 2516 
Q 3050 2419 3304 2112 
Q 3559 1806 3559 1356 
Q 3559 666 3084 287 
Q 2609 -91 1734 -91 
Q 1441 -91 1130 -33 
Q 819 25 488 141 
L 488 750 
Q 750 597 1062 519 
Q 1375 441 1716 441 
Q 2309 441 2620 675 
Q 2931 909 2931 1356 
Q 2931 1769 2642 2001 
Q 2353 2234 1838 2234 
L 1294 2234 
L 1294 2753 
L 1863 2753 
Q 2328 2753 2575 2939 
Q 2822 3125 2822 3475 
Q 2822 3834 2567 4026 
Q 2313 4219 1838 4219 
Q 1578 4219 1281 4162 
Q 984 4106 628 3988 
L 628 4550 
Q 988 4650 1302 4700 
Q 1616 4750 1894 4750 
Q 2613 4750 3031 4423 
Q 3450 4097 3450 3541 
Q 3450 3153 3228 2886 
Q 3006 2619 2597 2516 
z
" transform="scale(0.015625)"/>
       </defs>
       <use xlink:href="#DejaVuSans-33"/>
       <use xlink:href="#DejaVuSans-2e" transform="translate(63.623047 0)"/>
       <use xlink:href="#DejaVuSans-30" transform="translate(95.410156 0)"/>
      </g>
     </g>
    </g>
    <g id="text_8">
     <!-- Decomposition Energy (eV/atom) -->
     <g transform="translate(244.303125 544.715781) scale(0.15 -0.15)">
      <defs>
       <path id="DejaVuSans-44" d="M 1259 4147 
L 1259 519 
L 2022 519 
Q 2988 519 3436 956 
Q 3884 1394 3884 2338 
Q 3884 3275 3436 3711 
Q 2988 4147 2022 4147 
L 1259 4147 
z
M 628 4666 
L 1925 4666 
Q 3281 4666 3915 4102 
Q 4550 3538 4550 2338 
Q 4550 1131 3912 565 
Q 3275 0 1925 0 
L 628 0 
L 628 4666 
z
" transform="scale(0.015625)"/>
       <path id="DejaVuSans-65" d="M 3597 1894 
L 3597 1613 
L 953 1613 
Q 991 1019 1311 708 
Q 1631 397 2203 397 
Q 2534 397 2845 478 
Q 3156 559 3463 722 
L 3463 178 
Q 3153 47 2828 -22 
Q 2503 -91 2169 -91 
Q 1331 -91 842 396 
Q 353 884 353 1716 
Q 353 2575 817 3079 
Q 1281 3584 2069 3584 
Q 2775 3584 3186 3129 
Q 3597 2675 3597 1894 
z
M 3022 2063 
Q 3016 2534 2758 2815 
Q 2500 3097 2075 3097 
Q 1594 3097 1305 2825 
Q 1016 2553 972 2059 
L 3022 2063 
z
" transform="scale(0.015625)"/>
       <path id="DejaVuSans-63" d="M 3122 3366 
L 3122 2828 
Q 2878 2963 2633 3030 
Q 2388 3097 2138 3097 
Q 1578 3097 1268 2742 
Q 959 2388 959 1747 
Q 959 1106 1268 751 
Q 1578 397 2138 397 
Q 2388 397 2633 464 
Q 2878 531 3122 666 
L 3122 134 
Q 2881 22 2623 -34 
Q 2366 -91 2075 -91 
Q 1284 -91 818 406 
Q 353 903 353 1747 
Q 353 2603 823 3093 
Q 1294 3584 2113 3584 
Q 2378 3584 2631 3529 
Q 2884 3475 3122 3366 
z
" transform="scale(0.015625)"/>
       <path id="DejaVuSans-6f" d="M 1959 3097 
Q 1497 3097 1228 2736 
Q 959 2375 959 1747 
Q 959 1119 1226 758 
Q 1494 397 1959 397 
Q 2419 397 2687 759 
Q 2956 1122 2956 1747 
Q 2956 2369 2687 2733 
Q 2419 3097 1959 3097 
z
M 1959 3584 
Q 2709 3584 3137 3096 
Q 3566 2609 3566 1747 
Q 3566 888 3137 398 
Q 2709 -91 1959 -91 
Q 1206 -91 779 398 
Q 353 888 353 1747 
Q 353 2609 779 3096 
Q 1206 3584 1959 3584 
z
" transform="scale(0.015625)"/>
       <path id="DejaVuSans-6d" d="M 3328 2828 
Q 3544 3216 3844 3400 
Q 4144 3584 4550 3584 
Q 5097 3584 5394 3201 
Q 5691 2819 5691 2113 
L 5691 0 
L 5113 0 
L 5113 2094 
Q 5113 2597 4934 2840 
Q 4756 3084 4391 3084 
Q 3944 3084 3684 2787 
Q 3425 2491 3425 1978 
L 3425 0 
L 2847 0 
L 2847 2094 
Q 2847 2600 2669 2842 
Q 2491 3084 2119 3084 
Q 1678 3084 1418 2786 
Q 1159 2488 1159 1978 
L 1159 0 
L 581 0 
L 581 3500 
L 1159 3500 
L 1159 2956 
Q 1356 3278 1631 3431 
Q 1906 3584 2284 3584 
Q 2666 3584 2933 3390 
Q 3200 3197 3328 2828 
z
" transform="scale(0.015625)"/>
       <path id="DejaVuSans-70" d="M 1159 525 
L 1159 -1331 
L 581 -1331 
L 581 3500 
L 1159 3500 
L 1159 2969 
Q 1341 3281 1617 3432 
Q 1894 3584 2278 3584 
Q 2916 3584 3314 3078 
Q 3713 2572 3713 1747 
Q 3713 922 3314 415 
Q 2916 -91 2278 -91 
Q 1894 -91 1617 61 
Q 1341 213 1159 525 
z
M 3116 1747 
Q 3116 2381 2855 2742 
Q 2594 3103 2138 3103 
Q 1681 3103 1420 2742 
Q 1159 2381 1159 1747 
Q 1159 1113 1420 752 
Q 1681 391 2138 391 
Q 2594 391 2855 752 
Q 3116 1113 3116 1747 
z
" transform="scale(0.015625)"/>
       <path id="DejaVuSans-73" d="M 2834 3397 
L 2834 2853 
Q 2591 2978 2328 3040 
Q 2066 3103 1784 3103 
Q 1356 3103 1142 2972 
Q 928 2841 928 2578 
Q 928 2378 1081 2264 
Q 1234 2150 1697 2047 
L 1894 2003 
Q 2506 1872 2764 1633 
Q 3022 1394 3022 966 
Q 3022 478 2636 193 
Q 2250 -91 1575 -91 
Q 1294 -91 989 -36 
Q 684 19 347 128 
L 347 722 
Q 666 556 975 473 
Q 1284 391 1588 391 
Q 1994 391 2212 530 
Q 2431 669 2431 922 
Q 2431 1156 2273 1281 
Q 2116 1406 1581 1522 
L 1381 1569 
Q 847 1681 609 1914 
Q 372 2147 372 2553 
Q 372 3047 722 3315 
Q 1072 3584 1716 3584 
Q 2034 3584 2315 3537 
Q 2597 3491 2834 3397 
z
" transform="scale(0.015625)"/>
       <path id="DejaVuSans-69" d="M 603 3500 
L 1178 3500 
L 1178 0 
L 603 0 
L 603 3500 
z
M 603 4863 
L 1178 4863 
L 1178 4134 
L 603 4134 
L 603 4863 
z
" transform="scale(0.015625)"/>
       <path id="DejaVuSans-74" d="M 1172 4494 
L 1172 3500 
L 2356 3500 
L 2356 3053 
L 1172 3053 
L 1172 1153 
Q 1172 725 1289 603 
Q 1406 481 1766 481 
L 2356 481 
L 2356 0 
L 1766 0 
Q 1100 0 847 248 
Q 594 497 594 1153 
L 594 3053 
L 172 3053 
L 172 3500 
L 594 3500 
L 594 4494 
L 1172 4494 
z
" transform="scale(0.015625)"/>
       <path id="DejaVuSans-6e" d="M 3513 2113 
L 3513 0 
L 2938 0 
L 2938 2094 
Q 2938 2591 2744 2837 
Q 2550 3084 2163 3084 
Q 1697 3084 1428 2787 
Q 1159 2491 1159 1978 
L 1159 0 
L 581 0 
L 581 3500 
L 1159 3500 
L 1159 2956 
Q 1366 3272 1645 3428 
Q 1925 3584 2291 3584 
Q 2894 3584 3203 3211 
Q 3513 2838 3513 2113 
z
" transform="scale(0.015625)"/>
       <path id="DejaVuSans-20" transform="scale(0.015625)"/>
       <path id="DejaVuSans-45" d="M 628 4666 
L 3578 4666 
L 3578 4134 
L 1259 4134 
L 1259 2753 
L 3481 2753 
L 3481 2222 
L 1259 2222 
L 1259 531 
L 3634 531 
L 3634 0 
L 628 0 
L 628 4666 
z
" transform="scale(0.015625)"/>
       <path id="DejaVuSans-72" d="M 2631 2963 
Q 2534 3019 2420 3045 
Q 2306 3072 2169 3072 
Q 1681 3072 1420 2755 
Q 1159 2438 1159 1844 
L 1159 0 
L 581 0 
L 581 3500 
L 1159 3500 
L 1159 2956 
Q 1341 3275 1631 3429 
Q 1922 3584 2338 3584 
Q 2397 3584 2469 3576 
Q 2541 3569 2628 3553 
L 2631 2963 
z
" transform="scale(0.015625)"/>
       <path id="DejaVuSans-67" d="M 2906 1791 
Q 2906 2416 2648 2759 
Q 2391 3103 1925 3103 
Q 1463 3103 1205 2759 
Q 947 2416 947 1791 
Q 947 1169 1205 825 
Q 1463 481 1925 481 
Q 2391 481 2648 825 
Q 2906 1169 2906 1791 
z
M 3481 434 
Q 3481 -459 3084 -895 
Q 2688 -1331 1869 -1331 
Q 1566 -1331 1297 -1286 
Q 1028 -1241 775 -1147 
L 775 -588 
Q 1028 -725 1275 -790 
Q 1522 -856 1778 -856 
Q 2344 -856 2625 -561 
Q 2906 -266 2906 331 
L 2906 616 
Q 2728 306 2450 153 
Q 2172 0 1784 0 
Q 1141 0 747 490 
Q 353 981 353 1791 
Q 353 2603 747 3093 
Q 1141 3584 1784 3584 
Q 2172 3584 2450 3431 
Q 2728 3278 2906 2969 
L 2906 3500 
L 3481 3500 
L 3481 434 
z
" transform="scale(0.015625)"/>
       <path id="DejaVuSans-79" d="M 2059 -325 
Q 1816 -950 1584 -1140 
Q 1353 -1331 966 -1331 
L 506 -1331 
L 506 -850 
L 844 -850 
Q 1081 -850 1212 -737 
Q 1344 -625 1503 -206 
L 1606 56 
L 191 3500 
L 800 3500 
L 1894 763 
L 2988 3500 
L 3597 3500 
L 2059 -325 
z
" transform="scale(0.015625)"/>
       <path id="DejaVuSans-28" d="M 1984 4856 
Q 1566 4138 1362 3434 
Q 1159 2731 1159 2009 
Q 1159 1288 1364 580 
Q 1569 -128 1984 -844 
L 1484 -844 
Q 1016 -109 783 600 
Q 550 1309 550 2009 
Q 550 2706 781 3412 
Q 1013 4119 1484 4856 
L 1984 4856 
z
" transform="scale(0.015625)"/>
       <path id="DejaVuSans-56" d="M 1831 0 
L 50 4666 
L 709 4666 
L 2188 738 
L 3669 4666 
L 4325 4666 
L 2547 0 
L 1831 0 
z
" transform="scale(0.015625)"/>
       <path id="DejaVuSans-2f" d="M 1625 4666 
L 2156 4666 
L 531 -594 
L 0 -594 
L 1625 4666 
z
" transform="scale(0.015625)"/>
       <path id="DejaVuSans-61" d="M 2194 1759 
Q 1497 1759 1228 1600 
Q 959 1441 959 1056 
Q 959 750 1161 570 
Q 1363 391 1709 391 
Q 2188 391 2477 730 
Q 2766 1069 2766 1631 
L 2766 1759 
L 2194 1759 
z
M 3341 1997 
L 3341 0 
L 2766 0 
L 2766 531 
Q 2569 213 2275 61 
Q 1981 -91 1556 -91 
Q 1019 -91 701 211 
Q 384 513 384 1019 
Q 384 1609 779 1909 
Q 1175 2209 1959 2209 
L 2766 2209 
L 2766 2266 
Q 2766 2663 2505 2880 
Q 2244 3097 1772 3097 
Q 1472 3097 1187 3025 
Q 903 2953 641 2809 
L 641 3341 
Q 956 3463 1253 3523 
Q 1550 3584 1831 3584 
Q 2591 3584 2966 3190 
Q 3341 2797 3341 1997 
z
" transform="scale(0.015625)"/>
       <path id="DejaVuSans-29" d="M 513 4856 
L 1013 4856 
Q 1481 4119 1714 3412 
Q 1947 2706 1947 2009 
Q 1947 1309 1714 600 
Q 1481 -109 1013 -844 
L 513 -844 
Q 928 -128 1133 580 
Q 1338 1288 1338 2009 
Q 1338 2731 1133 3434 
Q 928 4138 513 4856 
z
" transform="scale(0.015625)"/>
      </defs>
      <use xlink:href="#DejaVuSans-44"/>
      <use xlink:href="#DejaVuSans-65" transform="translate(77.001953 0)"/>
      <use xlink:href="#DejaVuSans-63" transform="translate(138.525391 0)"/>
      <use xlink:href="#DejaVuSans-6f" transform="translate(193.505859 0)"/>
      <use xlink:href="#DejaVuSans-6d" transform="translate(254.6875 0)"/>
      <use xlink:href="#DejaVuSans-70" transform="translate(352.099609 0)"/>
      <use xlink:href="#DejaVuSans-6f" transform="translate(415.576172 0)"/>
      <use xlink:href="#DejaVuSans-73" transform="translate(476.757812 0)"/>
      <use xlink:href="#DejaVuSans-69" transform="translate(528.857422 0)"/>
      <use xlink:href="#DejaVuSans-74" transform="translate(556.640625 0)"/>
      <use xlink:href="#DejaVuSans-69" transform="translate(595.849609 0)"/>
      <use xlink:href="#DejaVuSans-6f" transform="translate(623.632812 0)"/>
      <use xlink:href="#DejaVuSans-6e" transform="translate(684.814453 0)"/>
      <use xlink:href="#DejaVuSans-20" transform="translate(748.193359 0)"/>
      <use xlink:href="#DejaVuSans-45" transform="translate(779.980469 0)"/>
      <use xlink:href="#DejaVuSans-6e" transform="translate(843.164062 0)"/>
      <use xlink:href="#DejaVuSans-65" transform="translate(906.542969 0)"/>
      <use xlink:href="#DejaVuSans-72" transform="translate(968.066406 0)"/>
      <use xlink:href="#DejaVuSans-67" transform="translate(1007.429688 0)"/>
      <use xlink:href="#DejaVuSans-79" transform="translate(1070.90625 0)"/>
      <use xlink:href="#DejaVuSans-20" transform="translate(1130.085938 0)"/>
      <use xlink:href="#DejaVuSans-28" transform="translate(1161.873047 0)"/>
      <use xlink:href="#DejaVuSans-65" transform="translate(1200.886719 0)"/>
      <use xlink:href="#DejaVuSans-56" transform="translate(1262.410156 0)"/>
      <use xlink:href="#DejaVuSans-2f" transform="translate(1330.818359 0)"/>
      <use xlink:href="#DejaVuSans-61" transform="translate(1364.509766 0)"/>
      <use xlink:href="#DejaVuSans-74" transform="translate(1425.789062 0)"/>
      <use xlink:href="#DejaVuSans-6f" transform="translate(1464.998047 0)"/>
      <use xlink:href="#DejaVuSans-6d" transform="translate(1526.179688 0)"/>
      <use xlink:href="#DejaVuSans-29" transform="translate(1623.591797 0)"/>
     </g>
    </g>
   </g>
   <g id="matplotlib.axis_2">
    <g id="ytick_1">
     <g id="line2d_8">
      <defs>
       <path id="mb513f027bc" d="M 0 0 
L -3.5 0 
" style="stroke: #000000; stroke-width: 0.8"/>
      </defs>
      <g>
       <use xlink:href="#mb513f027bc" x="90" y="512.64" style="stroke: #000000; stroke-width: 0.8"/>
      </g>
     </g>
     <g id="text_9">
      <!-- 0 -->
      <g transform="translate(76.6375 516.439219) scale(0.1 -0.1)">
       <use xlink:href="#DejaVuSans-30"/>
      </g>
     </g>
    </g>
    <g id="ytick_2">
     <g id="line2d_9">
      <g>
       <use xlink:href="#mb513f027bc" x="90" y="448.64" style="stroke: #000000; stroke-width: 0.8"/>
      </g>
     </g>
     <g id="text_10">
      <!-- 5 -->
      <g transform="translate(76.6375 452.439219) scale(0.1 -0.1)">
       <use xlink:href="#DejaVuSans-35"/>
      </g>
     </g>
    </g>
    <g id="ytick_3">
     <g id="line2d_10">
      <g>
       <use xlink:href="#mb513f027bc" x="90" y="384.64" style="stroke: #000000; stroke-width: 0.8"/>
      </g>
     </g>
     <g id="text_11">
      <!-- 10 -->
      <g transform="translate(70.275 388.439219) scale(0.1 -0.1)">
       <use xlink:href="#DejaVuSans-31"/>
       <use xlink:href="#DejaVuSans-30" transform="translate(63.623047 0)"/>
      </g>
     </g>
    </g>
    <g id="ytick_4">
     <g id="line2d_11">
      <g>
       <use xlink:href="#mb513f027bc" x="90" y="320.64" style="stroke: #000000; stroke-width: 0.8"/>
      </g>
     </g>
     <g id="text_12">
      <!-- 15 -->
      <g transform="translate(70.275 324.439219) scale(0.1 -0.1)">
       <use xlink:href="#DejaVuSans-31"/>
       <use xlink:href="#DejaVuSans-35" transform="translate(63.623047 0)"/>
      </g>
     </g>
    </g>
    <g id="ytick_5">
     <g id="line2d_12">
      <g>
       <use xlink:href="#mb513f027bc" x="90" y="256.64" style="stroke: #000000; stroke-width: 0.8"/>
      </g>
     </g>
     <g id="text_13">
      <!-- 20 -->
      <g transform="translate(70.275 260.439219) scale(0.1 -0.1)">
       <use xlink:href="#DejaVuSans-32"/>
       <use xlink:href="#DejaVuSans-30" transform="translate(63.623047 0)"/>
      </g>
     </g>
    </g>
    <g id="ytick_6">
     <g id="line2d_13">
      <g>
       <use xlink:href="#mb513f027bc" x="90" y="192.64" style="stroke: #000000; stroke-width: 0.8"/>
      </g>
     </g>
     <g id="text_14">
      <!-- 25 -->
      <g transform="translate(70.275 196.439219) scale(0.1 -0.1)">
       <use xlink:href="#DejaVuSans-32"/>
       <use xlink:href="#DejaVuSans-35" transform="translate(63.623047 0)"/>
      </g>
     </g>
    </g>
    <g id="ytick_7">
     <g id="line2d_14">
      <g>
       <use xlink:href="#mb513f027bc" x="90" y="128.64" style="stroke: #000000; stroke-width: 0.8"/>
      </g>
     </g>
     <g id="text_15">
      <!-- 30 -->
      <g transform="translate(70.275 132.439219) scale(0.1 -0.1)">
       <use xlink:href="#DejaVuSans-33"/>
       <use xlink:href="#DejaVuSans-30" transform="translate(63.623047 0)"/>
      </g>
     </g>
    </g>
    <g id="text_16">
     <!-- Count -->
     <g transform="translate(63.155469 313.152656) rotate(-90) scale(0.15 -0.15)">
      <defs>
       <path id="DejaVuSans-43" d="M 4122 4306 
L 4122 3641 
Q 3803 3938 3442 4084 
Q 3081 4231 2675 4231 
Q 1875 4231 1450 3742 
Q 1025 3253 1025 2328 
Q 1025 1406 1450 917 
Q 1875 428 2675 428 
Q 3081 428 3442 575 
Q 3803 722 4122 1019 
L 4122 359 
Q 3791 134 3420 21 
Q 3050 -91 2638 -91 
Q 1578 -91 968 557 
Q 359 1206 359 2328 
Q 359 3453 968 4101 
Q 1578 4750 2638 4750 
Q 3056 4750 3426 4639 
Q 3797 4528 4122 4306 
z
" transform="scale(0.015625)"/>
       <path id="DejaVuSans-75" d="M 544 1381 
L 544 3500 
L 1119 3500 
L 1119 1403 
Q 1119 906 1312 657 
Q 1506 409 1894 409 
Q 2359 409 2629 706 
Q 2900 1003 2900 1516 
L 2900 3500 
L 3475 3500 
L 3475 0 
L 2900 0 
L 2900 538 
Q 2691 219 2414 64 
Q 2138 -91 1772 -91 
Q 1169 -91 856 284 
Q 544 659 544 1381 
z
M 1991 3584 
L 1991 3584 
z
" transform="scale(0.015625)"/>
      </defs>
      <use xlink:href="#DejaVuSans-43"/>
      <use xlink:href="#DejaVuSans-6f" transform="translate(69.824219 0)"/>
      <use xlink:href="#DejaVuSans-75" transform="translate(131.005859 0)"/>
      <use xlink:href="#DejaVuSans-6e" transform="translate(194.384766 0)"/>
      <use xlink:href="#DejaVuSans-74" transform="translate(257.763672 0)"/>
     </g>
    </g>
   </g>
   <g id="patch_304">
    <path d="M 90 512.64 
L 90 69.12 
" style="fill: none; stroke: #000000; stroke-width: 0.8; stroke-linejoin: miter; stroke-linecap: square"/>
   </g>
   <g id="patch_305">
    <path d="M 648 512.64 
L 648 69.12 
" style="fill: none; stroke: #000000; stroke-width: 0.8; stroke-linejoin: miter; stroke-linecap: square"/>
   </g>
   <g id="patch_306">
    <path d="M 90 512.64 
L 648 512.64 
" style="fill: none; stroke: #000000; stroke-width: 0.8; stroke-linejoin: miter; stroke-linecap: square"/>
   </g>
   <g id="patch_307">
    <path d="M 90 69.12 
L 648 69.12 
" style="fill: none; stroke: #000000; stroke-width: 0.8; stroke-linejoin: miter; stroke-linecap: square"/>
   </g>
   <g id="legend_1">
    <g id="patch_308">
     <path d="M 389.4 147.204375 
L 637.5 147.204375 
Q 640.5 147.204375 640.5 144.204375 
L 640.5 79.62 
Q 640.5 76.62 637.5 76.62 
L 389.4 76.62 
Q 386.4 76.62 386.4 79.62 
L 386.4 144.204375 
Q 386.4 147.204375 389.4 147.204375 
z
" style="fill: #ffffff; opacity: 0.8; stroke: #cccccc; stroke-linejoin: miter"/>
    </g>
    <g id="patch_309">
     <path d="M 392.4 94.017656 
L 422.4 94.017656 
L 422.4 83.517656 
L 392.4 83.517656 
z
" style="fill: #008000; opacity: 0.2"/>
    </g>
    <g id="text_17">
     <!-- Stable within uncertainty -->
     <g transform="translate(434.4 94.017656) scale(0.15 -0.15)">
      <defs>
       <path id="DejaVuSans-53" d="M 3425 4513 
L 3425 3897 
Q 3066 4069 2747 4153 
Q 2428 4238 2131 4238 
Q 1616 4238 1336 4038 
Q 1056 3838 1056 3469 
Q 1056 3159 1242 3001 
Q 1428 2844 1947 2747 
L 2328 2669 
Q 3034 2534 3370 2195 
Q 3706 1856 3706 1288 
Q 3706 609 3251 259 
Q 2797 -91 1919 -91 
Q 1588 -91 1214 -16 
Q 841 59 441 206 
L 441 856 
Q 825 641 1194 531 
Q 1563 422 1919 422 
Q 2459 422 2753 634 
Q 3047 847 3047 1241 
Q 3047 1584 2836 1778 
Q 2625 1972 2144 2069 
L 1759 2144 
Q 1053 2284 737 2584 
Q 422 2884 422 3419 
Q 422 4038 858 4394 
Q 1294 4750 2059 4750 
Q 2388 4750 2728 4690 
Q 3069 4631 3425 4513 
z
" transform="scale(0.015625)"/>
       <path id="DejaVuSans-62" d="M 3116 1747 
Q 3116 2381 2855 2742 
Q 2594 3103 2138 3103 
Q 1681 3103 1420 2742 
Q 1159 2381 1159 1747 
Q 1159 1113 1420 752 
Q 1681 391 2138 391 
Q 2594 391 2855 752 
Q 3116 1113 3116 1747 
z
M 1159 2969 
Q 1341 3281 1617 3432 
Q 1894 3584 2278 3584 
Q 2916 3584 3314 3078 
Q 3713 2572 3713 1747 
Q 3713 922 3314 415 
Q 2916 -91 2278 -91 
Q 1894 -91 1617 61 
Q 1341 213 1159 525 
L 1159 0 
L 581 0 
L 581 4863 
L 1159 4863 
L 1159 2969 
z
" transform="scale(0.015625)"/>
       <path id="DejaVuSans-6c" d="M 603 4863 
L 1178 4863 
L 1178 0 
L 603 0 
L 603 4863 
z
" transform="scale(0.015625)"/>
       <path id="DejaVuSans-77" d="M 269 3500 
L 844 3500 
L 1563 769 
L 2278 3500 
L 2956 3500 
L 3675 769 
L 4391 3500 
L 4966 3500 
L 4050 0 
L 3372 0 
L 2619 2869 
L 1863 0 
L 1184 0 
L 269 3500 
z
" transform="scale(0.015625)"/>
       <path id="DejaVuSans-68" d="M 3513 2113 
L 3513 0 
L 2938 0 
L 2938 2094 
Q 2938 2591 2744 2837 
Q 2550 3084 2163 3084 
Q 1697 3084 1428 2787 
Q 1159 2491 1159 1978 
L 1159 0 
L 581 0 
L 581 4863 
L 1159 4863 
L 1159 2956 
Q 1366 3272 1645 3428 
Q 1925 3584 2291 3584 
Q 2894 3584 3203 3211 
Q 3513 2838 3513 2113 
z
" transform="scale(0.015625)"/>
      </defs>
      <use xlink:href="#DejaVuSans-53"/>
      <use xlink:href="#DejaVuSans-74" transform="translate(63.476562 0)"/>
      <use xlink:href="#DejaVuSans-61" transform="translate(102.685547 0)"/>
      <use xlink:href="#DejaVuSans-62" transform="translate(163.964844 0)"/>
      <use xlink:href="#DejaVuSans-6c" transform="translate(227.441406 0)"/>
      <use xlink:href="#DejaVuSans-65" transform="translate(255.224609 0)"/>
      <use xlink:href="#DejaVuSans-20" transform="translate(316.748047 0)"/>
      <use xlink:href="#DejaVuSans-77" transform="translate(348.535156 0)"/>
      <use xlink:href="#DejaVuSans-69" transform="translate(430.322266 0)"/>
      <use xlink:href="#DejaVuSans-74" transform="translate(458.105469 0)"/>
      <use xlink:href="#DejaVuSans-68" transform="translate(497.314453 0)"/>
      <use xlink:href="#DejaVuSans-69" transform="translate(560.693359 0)"/>
      <use xlink:href="#DejaVuSans-6e" transform="translate(588.476562 0)"/>
      <use xlink:href="#DejaVuSans-20" transform="translate(651.855469 0)"/>
      <use xlink:href="#DejaVuSans-75" transform="translate(683.642578 0)"/>
      <use xlink:href="#DejaVuSans-6e" transform="translate(747.021484 0)"/>
      <use xlink:href="#DejaVuSans-63" transform="translate(810.400391 0)"/>
      <use xlink:href="#DejaVuSans-65" transform="translate(865.380859 0)"/>
      <use xlink:href="#DejaVuSans-72" transform="translate(926.904297 0)"/>
      <use xlink:href="#DejaVuSans-74" transform="translate(968.017578 0)"/>
      <use xlink:href="#DejaVuSans-61" transform="translate(1007.226562 0)"/>
      <use xlink:href="#DejaVuSans-69" transform="translate(1068.505859 0)"/>
      <use xlink:href="#DejaVuSans-6e" transform="translate(1096.289062 0)"/>
      <use xlink:href="#DejaVuSans-74" transform="translate(1159.667969 0)"/>
      <use xlink:href="#DejaVuSans-79" transform="translate(1198.876953 0)"/>
     </g>
    </g>
    <g id="patch_310">
     <path d="M 392.4 116.037188 
L 422.4 116.037188 
L 422.4 105.537188 
L 392.4 105.537188 
z
" style="fill: #808080"/>
    </g>
    <g id="text_18">
     <!-- Materials with computed $\eta$ -->
     <g transform="translate(434.4 116.037188) scale(0.15 -0.15)">
      <defs>
       <path id="DejaVuSans-4d" d="M 628 4666 
L 1569 4666 
L 2759 1491 
L 3956 4666 
L 4897 4666 
L 4897 0 
L 4281 0 
L 4281 4097 
L 3078 897 
L 2444 897 
L 1241 4097 
L 1241 0 
L 628 0 
L 628 4666 
z
" transform="scale(0.015625)"/>
       <path id="DejaVuSans-64" d="M 2906 2969 
L 2906 4863 
L 3481 4863 
L 3481 0 
L 2906 0 
L 2906 525 
Q 2725 213 2448 61 
Q 2172 -91 1784 -91 
Q 1150 -91 751 415 
Q 353 922 353 1747 
Q 353 2572 751 3078 
Q 1150 3584 1784 3584 
Q 2172 3584 2448 3432 
Q 2725 3281 2906 2969 
z
M 947 1747 
Q 947 1113 1208 752 
Q 1469 391 1925 391 
Q 2381 391 2643 752 
Q 2906 1113 2906 1747 
Q 2906 2381 2643 2742 
Q 2381 3103 1925 3103 
Q 1469 3103 1208 2742 
Q 947 2381 947 1747 
z
" transform="scale(0.015625)"/>
       <path id="DejaVuSans-Oblique-3b7" d="M 3703 2113 
L 3034 -1331 
L 2459 -1331 
L 3125 2094 
Q 3222 2591 3075 2838 
Q 2931 3084 2544 3084 
Q 2078 3084 1750 2788 
Q 1425 2491 1325 1978 
L 941 0 
L 363 0 
L 1044 3500 
L 1622 3500 
L 1516 2956 
Q 1781 3272 2094 3428 
Q 2403 3584 2769 3584 
Q 3372 3584 3609 3213 
Q 3844 2838 3703 2113 
z
" transform="scale(0.015625)"/>
      </defs>
      <use xlink:href="#DejaVuSans-4d" transform="translate(0 0.015625)"/>
      <use xlink:href="#DejaVuSans-61" transform="translate(86.279297 0.015625)"/>
      <use xlink:href="#DejaVuSans-74" transform="translate(147.558594 0.015625)"/>
      <use xlink:href="#DejaVuSans-65" transform="translate(186.767578 0.015625)"/>
      <use xlink:href="#DejaVuSans-72" transform="translate(248.291016 0.015625)"/>
      <use xlink:href="#DejaVuSans-69" transform="translate(289.404297 0.015625)"/>
      <use xlink:href="#DejaVuSans-61" transform="translate(317.1875 0.015625)"/>
      <use xlink:href="#DejaVuSans-6c" transform="translate(378.466797 0.015625)"/>
      <use xlink:href="#DejaVuSans-73" transform="translate(406.25 0.015625)"/>
      <use xlink:href="#DejaVuSans-20" transform="translate(458.349609 0.015625)"/>
      <use xlink:href="#DejaVuSans-77" transform="translate(490.136719 0.015625)"/>
      <use xlink:href="#DejaVuSans-69" transform="translate(571.923828 0.015625)"/>
      <use xlink:href="#DejaVuSans-74" transform="translate(599.707031 0.015625)"/>
      <use xlink:href="#DejaVuSans-68" transform="translate(638.916016 0.015625)"/>
      <use xlink:href="#DejaVuSans-20" transform="translate(702.294922 0.015625)"/>
      <use xlink:href="#DejaVuSans-63" transform="translate(734.082031 0.015625)"/>
      <use xlink:href="#DejaVuSans-6f" transform="translate(789.0625 0.015625)"/>
      <use xlink:href="#DejaVuSans-6d" transform="translate(850.244141 0.015625)"/>
      <use xlink:href="#DejaVuSans-70" transform="translate(947.65625 0.015625)"/>
      <use xlink:href="#DejaVuSans-75" transform="translate(1011.132812 0.015625)"/>
      <use xlink:href="#DejaVuSans-74" transform="translate(1074.511719 0.015625)"/>
      <use xlink:href="#DejaVuSans-65" transform="translate(1113.720703 0.015625)"/>
      <use xlink:href="#DejaVuSans-64" transform="translate(1175.244141 0.015625)"/>
      <use xlink:href="#DejaVuSans-20" transform="translate(1238.720703 0.015625)"/>
      <use xlink:href="#DejaVuSans-Oblique-3b7" transform="translate(1270.507812 0.015625)"/>
     </g>
    </g>
    <g id="patch_311">
     <path d="M 392.4 138.084844 
L 422.4 138.084844 
L 422.4 127.584844 
L 392.4 127.584844 
z
" style="fill: #6495ed"/>
    </g>
    <g id="text_19">
     <!-- Filtered materials -->
     <g transform="translate(434.4 138.084844) scale(0.15 -0.15)">
      <defs>
       <path id="DejaVuSans-46" d="M 628 4666 
L 3309 4666 
L 3309 4134 
L 1259 4134 
L 1259 2759 
L 3109 2759 
L 3109 2228 
L 1259 2228 
L 1259 0 
L 628 0 
L 628 4666 
z
" transform="scale(0.015625)"/>
      </defs>
      <use xlink:href="#DejaVuSans-46"/>
      <use xlink:href="#DejaVuSans-69" transform="translate(50.269531 0)"/>
      <use xlink:href="#DejaVuSans-6c" transform="translate(78.052734 0)"/>
      <use xlink:href="#DejaVuSans-74" transform="translate(105.835938 0)"/>
      <use xlink:href="#DejaVuSans-65" transform="translate(145.044922 0)"/>
      <use xlink:href="#DejaVuSans-72" transform="translate(206.568359 0)"/>
      <use xlink:href="#DejaVuSans-65" transform="translate(245.431641 0)"/>
      <use xlink:href="#DejaVuSans-64" transform="translate(306.955078 0)"/>
      <use xlink:href="#DejaVuSans-20" transform="translate(370.431641 0)"/>
      <use xlink:href="#DejaVuSans-6d" transform="translate(402.21875 0)"/>
      <use xlink:href="#DejaVuSans-61" transform="translate(499.630859 0)"/>
      <use xlink:href="#DejaVuSans-74" transform="translate(560.910156 0)"/>
      <use xlink:href="#DejaVuSans-65" transform="translate(600.119141 0)"/>
      <use xlink:href="#DejaVuSans-72" transform="translate(661.642578 0)"/>
      <use xlink:href="#DejaVuSans-69" transform="translate(702.755859 0)"/>
      <use xlink:href="#DejaVuSans-61" transform="translate(730.539062 0)"/>
      <use xlink:href="#DejaVuSans-6c" transform="translate(791.818359 0)"/>
      <use xlink:href="#DejaVuSans-73" transform="translate(819.601562 0)"/>
     </g>
    </g>
   </g>
  </g>
 </g>
 <defs>
  <clipPath id="p024c4dc635">
   <rect x="90" y="69.12" width="558" height="443.52"/>
  </clipPath>
 </defs>
</svg>
